<svg xmlns="http://www.w3.org/2000/svg" xmlns:xlink="http://www.w3.org/1999/xlink" width="800" zoomAndPan="magnify" viewBox="0 0 600 149.999998" height="200" preserveAspectRatio="xMidYMid meet" version="1.0"><defs><g/><clipPath id="145370f830"><path d="M 502 0 L 600 0 L 600 43.085938 L 502 43.085938 Z M 502 0 " clip-rule="nonzero"/></clipPath><clipPath id="30aeadfaa4"><path d="M 0 70 L 86 70 L 86 150 L 0 150 Z M 0 70 " clip-rule="nonzero"/></clipPath><clipPath id="7bff271608"><path d="M -10.21875 40.121094 L 120.242188 170.582031 L 31.144531 259.679688 L -99.316406 129.21875 Z M -10.21875 40.121094 " clip-rule="nonzero"/></clipPath><clipPath id="256052803b"><path d="M -10.21875 40.121094 L 120.242188 170.582031 L 31.144531 259.679688 L -99.316406 129.21875 Z M -10.21875 40.121094 " clip-rule="nonzero"/></clipPath><clipPath id="f31a16294b"><path d="M -10.21875 40.121094 L 120.242188 170.582031 L 31.144531 259.679688 L -99.316406 129.21875 Z M -10.21875 40.121094 " clip-rule="nonzero"/></clipPath><clipPath id="7f54a0d86d"><path d="M 0 0 L 128 0 L 128 47 L 0 47 Z M 0 0 " clip-rule="nonzero"/></clipPath><clipPath id="50e28b1e54"><path d="M -58.375 -54.109375 L 97.90625 -117.769531 L 146.285156 1.003906 L -9.996094 64.664062 Z M -58.375 -54.109375 " clip-rule="nonzero"/></clipPath><clipPath id="5cca042280"><path d="M -58.375 -54.109375 L 97.90625 -117.769531 L 146.285156 1.003906 L -9.996094 64.664062 Z M -58.375 -54.109375 " clip-rule="nonzero"/></clipPath><clipPath id="e1db455aea"><path d="M -58.375 -54.109375 L 97.90625 -117.769531 L 146.285156 1.003906 L -9.996094 64.664062 Z M -58.375 -54.109375 " clip-rule="nonzero"/></clipPath><clipPath id="1f32a19d82"><path d="M 551.722656 1 L 558 1 L 558 8 L 551.722656 8 Z M 551.722656 1 " clip-rule="nonzero"/></clipPath><clipPath id="b33b1aaf75"><path d="M 337 125 L 445 125 L 445 150 L 337 150 Z M 337 125 " clip-rule="nonzero"/></clipPath><clipPath id="751bdaf0ea"><path d="M 359.207031 97.523438 L 464.652344 142.789062 L 430.332031 222.734375 L 324.886719 177.46875 Z M 359.207031 97.523438 " clip-rule="nonzero"/></clipPath><clipPath id="a5a56f847f"><path d="M 359.207031 97.523438 L 464.652344 142.789062 L 430.332031 222.734375 L 324.886719 177.46875 Z M 359.207031 97.523438 " clip-rule="nonzero"/></clipPath><clipPath id="4c45f4a71d"><path d="M 359.207031 97.523438 L 464.652344 142.789062 L 430.332031 222.734375 L 324.886719 177.46875 Z M 359.207031 97.523438 " clip-rule="nonzero"/></clipPath><clipPath id="2ef342f3ed"><path d="M 0 119 L 67 119 L 67 150 L 0 150 Z M 0 119 " clip-rule="nonzero"/></clipPath><clipPath id="e1e22baf84"><path d="M 47.972656 212.648438 L -39.269531 174.429688 L -10.078125 107.792969 L 77.167969 146.011719 Z M 47.972656 212.648438 " clip-rule="nonzero"/></clipPath><clipPath id="c072101354"><path d="M 47.972656 212.648438 L -39.269531 174.429688 L -10.078125 107.792969 L 77.167969 146.011719 Z M 47.972656 212.648438 " clip-rule="nonzero"/></clipPath><clipPath id="7d1ac6569c"><path d="M 47.972656 212.648438 L -39.269531 174.429688 L -10.078125 107.792969 L 77.167969 146.011719 Z M 47.972656 212.648438 " clip-rule="nonzero"/></clipPath><clipPath id="f84e2fbd9c"><path d="M 38 67 L 72 67 L 72 96 L 38 96 Z M 38 67 " clip-rule="nonzero"/></clipPath><clipPath id="46e0b89e9a"><path d="M 36.089844 83.875 L 65.726562 60.894531 L 80.433594 79.859375 L 50.796875 102.839844 Z M 36.089844 83.875 " clip-rule="nonzero"/></clipPath><clipPath id="5db97dd1a3"><path d="M 36.089844 83.875 L 65.726562 60.894531 L 80.433594 79.859375 L 50.796875 102.839844 Z M 36.089844 83.875 " clip-rule="nonzero"/></clipPath><clipPath id="489445a508"><path d="M 36.089844 83.875 L 65.726562 60.894531 L 80.433594 79.859375 L 50.796875 102.839844 Z M 36.089844 83.875 " clip-rule="nonzero"/></clipPath><clipPath id="ce87b1e32e"><path d="M 407.566406 28.6875 L 434.566406 28.6875 L 434.566406 51.1875 L 407.566406 51.1875 Z M 407.566406 28.6875 " clip-rule="nonzero"/></clipPath></defs><rect x="-60" width="720" fill="#ffffff" y="-15" height="179.999997" fill-opacity="1"/><rect x="-60" width="720" fill="#ffffff" y="-15" height="179.999997" fill-opacity="1"/><rect x="-60" width="720" fill="#30526a" y="-15" height="179.999997" fill-opacity="1"/><g clip-path="url(#145370f830)"><path fill="#f46e16" d="M 563.933594 43.085938 C 547.136719 43.085938 529.941406 38.183594 515.457031 21.609375 C 504.945312 9.535156 500.71875 -0.445312 502.488281 -9.023438 C 505.125 -21.671875 520.152344 -28.769531 536.082031 -36.300781 C 549.953125 -42.859375 564.292969 -49.632812 570.832031 -60.300781 C 583.042969 -80.191406 604.535156 -85.164062 619.238281 -83.363281 C 625.773438 -82.570312 631.769531 -80.445312 636.503906 -77.238281 C 641.597656 -73.8125 645.171875 -69.164062 646.835938 -63.832031 C 647.375 -62.101562 647.953125 -60.335938 648.53125 -58.535156 C 657.851562 -29.382812 669.445312 6.90625 656.007812 23.804688 C 650.445312 30.832031 641.019531 33.859375 627.976562 32.851562 C 621.65625 32.347656 612.988281 34.472656 602.980469 36.921875 C 591.351562 39.769531 577.769531 43.085938 563.933594 43.085938 Z M 613.492188 -80.121094 C 600.378906 -80.121094 583.800781 -74.570312 573.902344 -58.390625 C 566.785156 -46.824219 551.941406 -39.796875 537.636719 -33.023438 C 522.574219 -25.886719 508.304688 -19.148438 506.066406 -8.265625 C 504.511719 -0.914062 508.484375 8.09375 518.238281 19.230469 C 529.292969 31.878906 542.875 38.507812 559.777344 39.410156 C 574.515625 40.203125 589.21875 36.597656 602.1875 33.464844 C 612.519531 30.941406 621.441406 28.777344 628.339844 29.320312 C 640.261719 30.257812 648.421875 27.734375 653.265625 21.644531 C 665.472656 6.257812 654.203125 -29.023438 645.171875 -57.382812 C 644.59375 -59.183594 644.015625 -60.949219 643.476562 -62.714844 C 640.585938 -71.867188 631.375 -78.246094 618.875 -79.761719 C 617.035156 -80.011719 615.261719 -80.121094 613.492188 -80.121094 Z M 613.492188 -80.121094 " fill-opacity="1" fill-rule="nonzero"/></g><g clip-path="url(#30aeadfaa4)"><g clip-path="url(#7bff271608)"><g clip-path="url(#256052803b)"><g clip-path="url(#f31a16294b)"><path fill="#d7b18f" d="M 59.207031 189.027344 C 58.460938 189.902344 57.671875 190.882812 56.925781 191.824219 C 55.835938 193.621094 55.003906 195.53125 54.4375 197.554688 C 54.023438 199.117188 53.785156 200.707031 53.722656 202.324219 C 53.707031 204.285156 53.429688 204.351562 53.515625 209.125 C 53.773438 221.605469 54 222.160156 52.855469 228.863281 C 52.699219 229.617188 52.496094 230.363281 52.246094 231.089844 C 50.386719 237.34375 46.28125 244.589844 39.886719 245.199219 C 27.363281 246.378906 19.144531 224.941406 14.859375 215.304688 C 12.867188 210.816406 10.304688 203.863281 5.046875 198.847656 C -0.347656 193.675781 -7.171875 191.277344 -14.445312 189.539062 C -18.566406 188.476562 -22.738281 187.667969 -26.957031 187.113281 C -31.683594 186.035156 -37.246094 184.933594 -43.015625 181.5625 C -51.589844 176.523438 -57.617188 167.660156 -58.539062 162.390625 C -59.058594 160.21875 -59.316406 158.019531 -59.308594 155.785156 C -59.328125 151.761719 -58.664062 147.851562 -57.308594 144.0625 C -57.121094 143.4375 -56.726562 141.859375 -56.578125 141.550781 C -56.261719 140.707031 -56.050781 139.835938 -55.945312 138.941406 C -55.808594 137.878906 -54.320312 131.125 -56.136719 126.683594 C -57.28125 124.085938 -58.601562 121.582031 -60.097656 119.171875 C -60.695312 118.035156 -61.148438 116.835938 -61.699219 115.6875 C -63.832031 111.089844 -62.984375 94.992188 -58.238281 89.324219 C -54.589844 84.976562 -51.425781 81.363281 -46.296875 78.902344 C -35.714844 73.835938 -35.59375 74.085938 -31.628906 72.796875 C -16.292969 67.796875 -2.472656 73.539062 4.625 85.890625 C 6.261719 88.742188 9.492188 94.601562 11.28125 98.175781 C 13.257812 102.21875 15.824219 105.839844 18.984375 109.042969 C 22.144531 112.246094 25.734375 114.859375 29.75 116.886719 C 33.429688 118.703125 32.546875 118.484375 40.097656 120.976562 C 45.480469 122.726562 59.132812 123.238281 70.089844 128.503906 C 85.15625 135.753906 91.875 155.15625 78.300781 172.574219 C 74.132812 177.925781 64.175781 183.277344 59.207031 189.027344 Z M 59.207031 189.027344 " fill-opacity="1" fill-rule="nonzero"/></g></g></g></g><g clip-path="url(#7f54a0d86d)"><g clip-path="url(#50e28b1e54)"><g clip-path="url(#5cca042280)"><g clip-path="url(#e1db455aea)"><path fill="#5d9d9f" d="M 48.558594 40.8125 C 33.003906 47.152344 15.230469 49.097656 -4.4375 39.210938 C -18.726562 31.996094 -26.40625 24.347656 -28.003906 15.738281 C -30.332031 3.027344 -19.09375 -9.214844 -7.183594 -22.199219 C 3.191406 -33.507812 13.914062 -45.191406 15.945312 -57.535156 C 19.75 -80.5625 37.777344 -93.277344 52.074219 -97.152344 C 58.429688 -98.886719 64.785156 -99.179688 70.375 -97.996094 C 76.382812 -96.746094 81.449219 -93.789062 85 -89.476562 C 86.15625 -88.078125 87.355469 -86.664062 88.570312 -85.210938 C 108.199219 -61.730469 132.628906 -32.496094 126.558594 -11.777344 C 124.058594 -3.167969 116.46875 3.191406 104.011719 7.175781 C 97.964844 9.09375 90.738281 14.332031 82.398438 20.375 C 72.699219 27.402344 61.371094 35.59375 48.558594 40.8125 Z M 47.976562 -91.984375 C 35.835938 -87.039062 22.574219 -75.644531 19.511719 -56.925781 C 17.285156 -43.527344 6.183594 -31.417969 -4.507812 -19.75 C -15.765625 -7.457031 -26.4375 4.164062 -24.40625 15.089844 C -23.070312 22.480469 -15.992188 29.328125 -2.757812 35.960938 C 12.25 43.503906 27.328125 44.519531 43.324219 38.976562 C 57.273438 34.152344 69.527344 25.269531 80.355469 17.472656 C 88.972656 11.238281 96.417969 5.871094 103.011719 3.769531 C 114.40625 0.140625 121.015625 -5.277344 123.199219 -12.742188 C 128.703125 -31.597656 104.957031 -60.019531 85.894531 -82.875 C 84.679688 -84.328125 83.480469 -85.746094 82.3125 -87.175781 C 76.179688 -94.5625 65.246094 -96.992188 53.097656 -93.679688 C 51.296875 -93.21875 49.617188 -92.652344 47.976562 -91.984375 Z M 47.976562 -91.984375 " fill-opacity="1" fill-rule="nonzero"/></g></g></g></g><path fill="#ffffff" d="M 571.460938 0.550781 C 571.390625 0.484375 571.316406 0.414062 571.226562 0.347656 C 570.96875 0.148438 570.566406 0.355469 570.480469 0.636719 C 570.273438 0.707031 570.074219 0.800781 569.886719 0.929688 C 569.308594 1.320312 569.015625 1.945312 568.984375 2.582031 C 568.886719 3.46875 569.273438 4.398438 570.136719 4.847656 C 571.710938 5.648438 573.570312 4.492188 573.5 2.722656 C 573.441406 1.515625 572.511719 0.679688 571.460938 0.550781 Z M 571.460938 0.550781 " fill-opacity="1" fill-rule="nonzero"/><path fill="#ffffff" d="M 566.703125 10.304688 C 566.4375 9.8125 565.902344 9.519531 565.34375 9.613281 C 565.109375 9.648438 564.886719 9.753906 564.699219 9.898438 C 564.59375 9.90625 564.492188 9.957031 564.398438 10.070312 C 563.648438 11 564.300781 12.566406 565.542969 12.601562 C 566.738281 12.636719 567.203125 11.222656 566.703125 10.304688 Z M 566.703125 10.304688 " fill-opacity="1" fill-rule="nonzero"/><g clip-path="url(#1f32a19d82)"><path fill="#ffffff" d="M 553.1875 2.273438 C 553.039062 2.367188 552.902344 2.488281 552.789062 2.617188 C 552.144531 3.167969 551.738281 4.011719 551.859375 5.027344 C 551.921875 5.578125 552.160156 6.042969 552.496094 6.40625 C 552.753906 6.707031 553.097656 6.957031 553.546875 7.109375 C 553.796875 7.195312 554.039062 7.246094 554.277344 7.265625 C 555.34375 7.394531 556.472656 6.972656 556.988281 5.886719 C 558.117188 3.546875 555.535156 0.734375 553.1875 2.273438 Z M 555.957031 5.535156 C 555.644531 5.929688 555.128906 6.1875 554.605469 6.230469 C 554.914062 6.171875 555.214844 6.042969 555.484375 5.835938 C 556.121094 5.335938 556.273438 4.546875 556.023438 3.867188 C 556.109375 4.027344 556.179688 4.203125 556.214844 4.382812 C 556.214844 4.390625 556.214844 4.398438 556.214844 4.40625 C 556.222656 4.449219 556.222656 4.492188 556.230469 4.535156 C 556.238281 4.761719 556.214844 4.976562 556.152344 5.183594 C 556.109375 5.304688 556.042969 5.421875 555.957031 5.535156 Z M 555.957031 5.535156 " fill-opacity="1" fill-rule="nonzero"/></g><path fill="#ffffff" d="M 583.007812 4.398438 C 582.835938 3.789062 582.242188 3.316406 581.605469 3.347656 C 581.46875 3.359375 581.339844 3.390625 581.21875 3.445312 C 581.082031 3.339844 580.890625 3.316406 580.703125 3.445312 C 579.738281 4.074219 579.730469 5.671875 580.804688 6.207031 C 581.921875 6.765625 583.34375 5.613281 583.007812 4.398438 Z M 583.007812 4.398438 " fill-opacity="1" fill-rule="nonzero"/><path fill="#ffffff" d="M 595.097656 4.925781 C 594.21875 4.320312 593.160156 4.375 592.34375 4.820312 C 592.164062 4.710938 591.921875 4.691406 591.722656 4.882812 C 589.882812 6.609375 591.0625 9.785156 593.652344 9.691406 C 596.035156 9.597656 597.117188 6.308594 595.097656 4.925781 Z M 595.128906 7.085938 C 595.113281 6.945312 595.078125 6.808594 595.027344 6.664062 C 594.863281 6.1875 594.511719 5.785156 594.074219 5.570312 C 594.753906 5.777344 595.140625 6.40625 595.128906 7.085938 Z M 593.28125 6.773438 C 593.660156 6.6875 593.832031 7.421875 593.367188 7.488281 C 593.261719 7.507812 593.175781 7.488281 593.117188 7.464844 C 592.9375 7.257812 592.988281 6.835938 593.28125 6.773438 Z M 593.28125 6.773438 " fill-opacity="1" fill-rule="nonzero"/><path fill="#ffffff" d="M 581.433594 16.078125 C 580.855469 16.058594 580.332031 16.265625 579.917969 16.601562 C 579.851562 16.628906 579.789062 16.664062 579.71875 16.722656 C 579.351562 17.085938 579.109375 17.550781 578.996094 18.046875 C 578.921875 18.375 578.902344 18.710938 578.953125 19.046875 C 579.050781 19.769531 579.402344 20.449219 580.023438 20.886719 C 581.449219 21.902344 583.574219 20.972656 584.058594 19.347656 C 584.546875 17.695312 583.058594 16.113281 581.433594 16.078125 Z M 581.433594 16.078125 " fill-opacity="1" fill-rule="nonzero"/><path fill="#ffffff" d="M 578.886719 28.769531 C 578.328125 28.21875 577.476562 28.332031 576.941406 28.761719 C 576.8125 28.796875 576.699219 28.882812 576.613281 28.996094 C 575.796875 30.054688 576.941406 31.800781 578.242188 31.507812 C 579.417969 31.242188 579.703125 29.570312 578.886719 28.769531 Z M 578.886719 28.769531 " fill-opacity="1" fill-rule="nonzero"/><path fill="#ffffff" d="M 562.589844 24.269531 C 561.738281 23.695312 560.792969 23.640625 559.992188 23.925781 C 559.921875 23.933594 559.855469 23.953125 559.777344 23.988281 C 559.664062 24.046875 559.5625 24.105469 559.457031 24.175781 C 558.425781 24.804688 557.78125 26.050781 558.167969 27.445312 C 558.882812 30.011719 562.445312 30.175781 563.484375 27.738281 C 563.632812 27.402344 563.691406 27.058594 563.683594 26.730469 C 563.804688 25.835938 563.492188 24.882812 562.589844 24.269531 Z M 560.164062 27.058594 C 560.035156 26.84375 559.984375 26.585938 560.085938 26.34375 C 560.101562 26.300781 560.128906 26.265625 560.144531 26.234375 C 560.070312 26.5 560.070312 26.800781 560.164062 27.058594 Z M 560.164062 27.058594 " fill-opacity="1" fill-rule="nonzero"/><path fill="#ffffff" d="M 598.011719 17.738281 C 597.566406 17.203125 596.824219 16.980469 596.179688 17.238281 C 596.136719 17.246094 596.09375 17.265625 596.042969 17.292969 C 594.785156 17.9375 594.882812 20.011719 596.316406 20.363281 C 596.980469 20.527344 597.738281 20.261719 598.140625 19.710938 C 598.589844 19.105469 598.476562 18.296875 598.011719 17.738281 Z M 598.011719 17.738281 " fill-opacity="1" fill-rule="nonzero"/><path fill="#ffffff" d="M 598.5625 28.566406 C 597.917969 28.804688 597.453125 29.320312 597.210938 29.925781 C 596.300781 31.214844 596.464844 33.167969 597.945312 34.074219 C 599.828125 35.226562 602.253906 34.046875 602.539062 31.878906 C 602.8125 29.710938 600.722656 27.765625 598.5625 28.566406 Z M 599.519531 30.984375 C 599.671875 31.078125 599.769531 31.164062 599.800781 31.257812 C 599.75 31.242188 599.683594 31.234375 599.613281 31.242188 C 599.371094 31.191406 599.347656 31.105469 599.519531 30.984375 Z M 598.183594 32.980469 C 598.339844 33.058594 598.496094 33.101562 598.660156 33.132812 C 598.640625 33.1875 598.640625 33.238281 598.640625 33.296875 C 598.496094 33.230469 598.355469 33.132812 598.238281 33.03125 C 598.210938 33.015625 598.203125 32.996094 598.183594 32.980469 Z M 598.183594 32.980469 " fill-opacity="1" fill-rule="nonzero"/><path fill="#ffffff" d="M 588.472656 42.515625 C 587.652344 41.394531 585.96875 41.550781 585.140625 42.515625 C 585.019531 42.539062 584.898438 42.601562 584.804688 42.722656 C 583.78125 44.097656 584.824219 46.363281 586.648438 46.035156 C 587.136719 45.949219 587.59375 45.683594 587.902344 45.292969 C 588.746094 44.65625 589.175781 43.480469 588.472656 42.515625 Z M 588.472656 42.515625 " fill-opacity="1" fill-rule="nonzero"/><path fill="#ffffff" d="M 571.960938 41.25 C 571.28125 40.734375 570.34375 40.707031 569.644531 41.09375 C 569.492188 41.050781 569.316406 41.078125 569.171875 41.222656 C 568.285156 42.066406 568.199219 43.574219 569.015625 44.503906 C 569.851562 45.449219 571.375 45.371094 572.261719 44.539062 C 573.25 43.589844 573 42.042969 571.960938 41.25 Z M 571.960938 41.25 " fill-opacity="1" fill-rule="nonzero"/><path fill="#ffffff" d="M 556.164062 40.769531 C 556.042969 40.769531 555.929688 40.792969 555.820312 40.820312 C 555.621094 40.792969 555.414062 40.828125 555.214844 40.941406 C 555.148438 40.984375 555.078125 41.035156 555.019531 41.09375 C 554.835938 41.25 554.707031 41.457031 554.664062 41.6875 C 554.605469 41.894531 554.597656 42.121094 554.65625 42.324219 C 554.742188 42.652344 554.984375 42.886719 555.269531 42.996094 C 555.507812 43.210938 555.828125 43.351562 556.171875 43.351562 C 556.875 43.351562 557.382812 42.746094 557.382812 42.066406 C 557.394531 41.378906 556.867188 40.769531 556.164062 40.769531 Z M 556.164062 40.769531 " fill-opacity="1" fill-rule="nonzero"/><path fill="#ffffff" d="M 580.304688 60.371094 C 579.832031 59.941406 579.152344 59.898438 578.628906 60.25 C 578.5 60.339844 578.386719 60.449219 578.292969 60.570312 C 578.207031 60.613281 578.128906 60.683594 578.078125 60.792969 C 577.570312 61.894531 578.636719 63.296875 579.859375 62.980469 C 581.027344 62.671875 581.105469 61.105469 580.304688 60.371094 Z M 580.304688 60.371094 " fill-opacity="1" fill-rule="nonzero"/><path fill="#ffffff" d="M 594.691406 53.589844 C 594.289062 51.894531 591.929688 51.472656 590.890625 52.816406 C 589.8125 54.203125 590.691406 56.328125 592.523438 56.234375 C 592.773438 56.222656 592.996094 56.164062 593.203125 56.070312 C 594.21875 55.835938 594.976562 54.769531 594.691406 53.589844 Z M 592.59375 54.460938 C 592.324219 54.640625 592.359375 54.140625 592.667969 54.324219 C 592.703125 54.339844 592.722656 54.367188 592.738281 54.390625 C 592.6875 54.398438 592.644531 54.425781 592.59375 54.460938 Z M 592.59375 54.460938 " fill-opacity="1" fill-rule="nonzero"/><path fill="#ffffff" d="M 563.964844 55.019531 C 563.433594 55.078125 562.933594 55.414062 562.726562 55.933594 C 562.417969 56.707031 562.777344 57.515625 563.40625 57.988281 C 563.511719 58.066406 563.613281 58.09375 563.71875 58.082031 C 564.730469 58.597656 565.808594 57.695312 565.910156 56.628906 C 566.015625 55.519531 564.914062 54.734375 563.964844 55.019531 Z M 564.371094 56.207031 C 564.5 56.300781 564.414062 56.515625 564.285156 56.585938 C 564.0625 56.65625 563.863281 56.171875 564.257812 56.15625 C 564.292969 56.164062 564.328125 56.179688 564.371094 56.207031 Z M 564.371094 56.207031 " fill-opacity="1" fill-rule="nonzero"/><path fill="#ffffff" d="M 121.820312 10 C 121.347656 9.570312 120.667969 9.527344 120.144531 9.878906 C 120.015625 9.964844 119.902344 10.078125 119.808594 10.195312 C 119.722656 10.238281 119.644531 10.308594 119.59375 10.421875 C 119.085938 11.523438 120.152344 12.925781 121.375 12.605469 C 122.542969 12.296875 122.621094 10.730469 121.820312 10 Z M 121.820312 10 " fill-opacity="1" fill-rule="nonzero"/><path fill="#ffffff" d="M 136.207031 3.21875 C 135.804688 1.523438 133.445312 1.101562 132.40625 2.441406 C 131.328125 3.828125 132.207031 5.953125 134.039062 5.859375 C 134.289062 5.851562 134.511719 5.789062 134.71875 5.695312 C 135.734375 5.464844 136.492188 4.398438 136.207031 3.21875 Z M 134.109375 4.085938 C 133.839844 4.265625 133.875 3.769531 134.183594 3.949219 C 134.21875 3.964844 134.238281 3.992188 134.253906 4.019531 C 134.203125 4.027344 134.160156 4.050781 134.109375 4.085938 Z M 134.109375 4.085938 " fill-opacity="1" fill-rule="nonzero"/><path fill="#ffffff" d="M 143.476562 10.988281 C 143.074219 10.972656 142.765625 11.152344 142.566406 11.417969 C 142.28125 11.339844 141.894531 11.496094 141.851562 11.882812 C 141.722656 13.132812 143.125 14.136719 144.191406 13.339844 C 145.199219 12.597656 144.742188 11.039062 143.476562 10.988281 Z M 143.476562 10.988281 " fill-opacity="1" fill-rule="nonzero"/><path fill="#ffffff" d="M 154.613281 -1.078125 C 154.027344 -1.480469 153.304688 -1.53125 152.71875 -1.273438 C 152.648438 -1.265625 152.582031 -1.242188 152.503906 -1.1875 C 152.433594 -1.136719 152.375 -1.085938 152.3125 -1.035156 C 152.097656 -0.851562 151.917969 -0.621094 151.796875 -0.328125 C 151.660156 -0.0078125 151.625 0.324219 151.675781 0.636719 C 151.703125 0.960938 151.816406 1.289062 152.003906 1.582031 C 152.683594 2.589844 154.105469 2.539062 154.914062 1.730469 C 155.757812 0.894531 155.574219 -0.414062 154.613281 -1.078125 Z M 154.613281 -1.078125 " fill-opacity="1" fill-rule="nonzero"/><path fill="#ffffff" d="M 105.480469 4.644531 C 104.949219 4.707031 104.449219 5.042969 104.242188 5.558594 C 103.933594 6.332031 104.292969 7.140625 104.921875 7.613281 C 105.027344 7.691406 105.128906 7.71875 105.234375 7.710938 C 106.246094 8.226562 107.324219 7.324219 107.425781 6.253906 C 107.53125 5.144531 106.429688 4.363281 105.480469 4.644531 Z M 105.886719 5.832031 C 106.015625 5.929688 105.929688 6.144531 105.800781 6.210938 C 105.578125 6.28125 105.378906 5.800781 105.773438 5.78125 C 105.808594 5.789062 105.84375 5.808594 105.886719 5.832031 Z M 105.886719 5.832031 " fill-opacity="1" fill-rule="nonzero"/><g clip-path="url(#b33b1aaf75)"><g clip-path="url(#751bdaf0ea)"><g clip-path="url(#a5a56f847f)"><g clip-path="url(#4c45f4a71d)"><path fill="#f7a7ab" d="M 364.394531 194.429688 C 353.898438 189.925781 344.46875 182.257812 339.851562 168.039062 C 336.515625 157.695312 336.542969 150.339844 339.945312 145.464844 C 344.976562 138.289062 356.265625 137.894531 368.238281 137.472656 C 378.660156 137.105469 389.433594 136.730469 396.371094 131.835938 C 409.324219 122.710938 424.085938 125.375 432.789062 130.441406 C 436.660156 132.691406 439.839844 135.625 441.9375 138.890625 C 444.203125 142.394531 445.195312 146.25 444.804688 150.019531 C 444.683594 151.242188 444.570312 152.5 444.449219 153.777344 C 442.472656 174.449219 440.007812 200.179688 427.085938 207.109375 C 421.730469 210 415.03125 209.355469 407.152344 205.230469 C 403.335938 203.21875 397.351562 202.21875 390.441406 201.0625 C 382.414062 199.71875 373.039062 198.140625 364.394531 194.429688 Z M 428.332031 130.921875 C 420.136719 127.40625 408.292969 126.417969 397.78125 133.847656 C 390.238281 139.152344 379.082031 139.546875 368.328125 139.933594 C 357.007812 140.339844 346.289062 140.714844 341.976562 146.898438 C 339.039062 151.0625 339.113281 157.746094 342.226562 167.300781 C 345.75 178.152344 352.460938 185.929688 362.78125 191.023438 C 371.78125 195.472656 381.929688 197.167969 390.871094 198.691406 C 398.003906 199.890625 404.15625 200.9375 408.324219 203.125 C 415.519531 206.90625 421.296875 207.523438 425.949219 205.027344 C 437.695312 198.710938 440.09375 173.695312 442.042969 153.59375 C 442.164062 152.316406 442.273438 151.0625 442.40625 149.816406 C 443.050781 143.335938 439.003906 136.886719 431.597656 132.589844 C 430.515625 131.941406 429.4375 131.398438 428.332031 130.921875 Z M 428.332031 130.921875 " fill-opacity="1" fill-rule="nonzero"/></g></g></g></g><g clip-path="url(#2ef342f3ed)"><g clip-path="url(#e1e22baf84)"><g clip-path="url(#c072101354)"><g clip-path="url(#7d1ac6569c)"><path fill="#ffffff" d="M 44.476562 131.691406 C 53.160156 135.496094 60.933594 141.9375 64.648438 153.832031 C 67.335938 162.484375 67.25 168.625 64.382812 172.683594 C 60.140625 178.65625 50.753906 178.941406 40.804688 179.246094 C 32.140625 179.511719 23.1875 179.785156 17.378906 183.847656 C 6.539062 191.417969 -5.703125 189.132812 -12.894531 184.867188 C -16.09375 182.972656 -18.710938 180.511719 -20.425781 177.773438 C -22.28125 174.839844 -23.070312 171.617188 -22.714844 168.46875 C -22.601562 167.449219 -22.5 166.398438 -22.386719 165.332031 C -20.570312 148.074219 -18.304688 126.59375 -7.511719 120.855469 C -3.035156 118.464844 2.527344 119.027344 9.039062 122.503906 C 12.191406 124.199219 17.15625 125.058594 22.886719 126.050781 C 29.550781 127.207031 37.324219 128.558594 44.476562 131.691406 Z M -9.1875 184.484375 C -2.410156 187.453125 7.425781 188.324219 16.226562 182.160156 C 22.539062 177.761719 31.8125 177.472656 40.75 177.191406 C 50.160156 176.894531 59.070312 176.625 62.707031 171.480469 C 65.183594 168.011719 65.179688 162.429688 62.671875 154.4375 C 59.835938 145.359375 54.324219 138.839844 45.789062 134.542969 C 38.351562 130.792969 29.929688 129.335938 22.511719 128.027344 C 16.597656 127 11.492188 126.101562 8.046875 124.257812 C 2.097656 121.070312 -2.695312 120.53125 -6.585938 122.601562 C -16.398438 127.832031 -18.601562 148.714844 -20.390625 165.492188 C -20.5 166.5625 -20.601562 167.609375 -20.726562 168.648438 C -21.316406 174.058594 -18.003906 179.460938 -11.886719 183.078125 C -10.992188 183.625 -10.101562 184.082031 -9.1875 184.484375 Z M -9.1875 184.484375 " fill-opacity="1" fill-rule="nonzero"/></g></g></g></g><g clip-path="url(#f84e2fbd9c)"><g clip-path="url(#46e0b89e9a)"><g clip-path="url(#5db97dd1a3)"><g clip-path="url(#489445a508)"><path fill="#ecdecf" d="M 50.738281 72.515625 C 51.347656 72.175781 51.964844 71.839844 52.566406 71.492188 C 53.746094 70.824219 54.191406 70.898438 54.875 71.996094 C 57.964844 76.917969 61.050781 81.847656 64.132812 86.777344 C 64.339844 87.105469 64.621094 87.398438 64.769531 87.75 C 64.882812 88.007812 64.832031 88.335938 64.855469 88.632812 C 64.546875 88.5625 64.15625 88.582031 63.953125 88.398438 C 62.246094 86.820312 60.558594 85.222656 58.898438 83.59375 C 55.835938 80.585938 52.792969 77.5625 49.765625 74.523438 C 49.539062 74.292969 49.46875 73.917969 49.324219 73.613281 Z M 61.609375 84.847656 L 61.695312 84.75 C 59.082031 80.519531 56.464844 76.285156 53.800781 71.96875 L 50.449219 73.972656 C 54.207031 77.632812 57.90625 81.246094 61.609375 84.847656 Z M 58.460938 94.28125 C 58.484375 94.449219 58.613281 94.738281 58.519531 94.871094 C 58.394531 95.042969 58.085938 95.210938 57.882812 95.1875 C 57.355469 95.109375 56.828125 94.976562 56.328125 94.792969 C 50.25 92.578125 44.402344 89.855469 38.703125 86.792969 C 38.25 86.554688 37.921875 86.226562 38.253906 85.742188 C 38.988281 84.675781 39.769531 83.632812 40.574219 82.609375 C 41.046875 82 41.570312 82.082031 42.191406 82.527344 C 47.433594 86.335938 52.695312 90.121094 57.949219 93.910156 Z M 54.1875 93.03125 L 54.367188 92.742188 C 50.03125 89.65625 45.695312 86.578125 41.222656 83.398438 L 39.386719 86.128906 C 44.394531 88.464844 49.289062 90.746094 54.1875 93.03125 Z M 71.304688 68.101562 C 71.328125 68.351562 71.375 68.613281 71.367188 68.871094 C 71.152344 74.5625 70.933594 80.25 70.710938 85.9375 C 70.695312 86.351562 70.761719 86.777344 70.695312 87.179688 C 70.660156 87.386719 70.417969 87.554688 70.269531 87.742188 C 70.105469 87.597656 69.847656 87.480469 69.800781 87.308594 C 69.597656 86.5625 69.460938 85.796875 69.292969 85.042969 C 68.113281 79.820312 66.9375 74.59375 65.757812 69.375 C 65.335938 67.53125 65.414062 67.292969 67.292969 67.3125 C 68.515625 67.324219 69.738281 67.679688 70.957031 67.890625 C 71.066406 67.910156 71.160156 68.007812 71.304688 68.101562 Z M 69.71875 82.105469 L 69.914062 82.136719 C 70.082031 77.792969 70.257812 73.453125 70.394531 69.105469 C 70.40625 68.886719 70.125 68.488281 69.945312 68.464844 C 68.792969 68.316406 67.632812 68.253906 66.421875 68.15625 C 67.554688 72.964844 68.636719 77.535156 69.71875 82.105469 Z M 69.71875 82.105469 " fill-opacity="1" fill-rule="nonzero"/></g></g></g></g><path fill="#d7b18f" d="M 586.804688 117.03125 C 583.824219 116.796875 580.25 118.457031 577.683594 120.160156 C 574.707031 122.128906 571.152344 125.550781 567.578125 126.5 C 565.355469 127.101562 562.402344 126.964844 559.761719 126 C 554.992188 124.253906 553.703125 122.523438 549.398438 121.101562 C 545.984375 119.972656 542.296875 120.722656 539.148438 123.679688 C 538.15625 124.609375 536.980469 125.84375 536.945312 125.878906 C 536.207031 126.59375 535.351562 125.265625 537.726562 122.410156 C 539.6875 120.0625 541.632812 118.734375 544.667969 118.253906 C 553.1875 116.90625 559.089844 126.394531 567.125 124.046875 C 571.734375 122.703125 576.121094 116.429688 583.695312 114.816406 C 591.855469 113.074219 595.890625 119.519531 602.488281 120.386719 C 606.007812 120.84375 607.636719 119.976562 611.011719 121.183594 C 611.246094 121.265625 611.53125 121.339844 611.527344 121.660156 C 611.519531 121.976562 611.246094 121.984375 611.058594 122.089844 C 609.820312 122.734375 608.507812 123.0625 607.113281 123.066406 C 595.734375 123.542969 594.164062 117.585938 586.804688 117.03125 Z M 586.804688 117.03125 " fill-opacity="1" fill-rule="nonzero"/><path fill="#d7b18f" d="M 618.835938 113.082031 C 615.773438 114.867188 613.207031 116.085938 610.042969 116.367188 C 606.546875 116.679688 602.695312 115.101562 599.726562 113.214844 C 593.507812 109.265625 590.359375 103.867188 581.441406 108.082031 C 577.882812 109.769531 575.109375 112.050781 571.058594 112.652344 C 567.496094 113.179688 564.3125 112.390625 561.675781 109.742188 C 557.941406 105.984375 559.035156 104.511719 559.621094 104.929688 C 560.597656 105.644531 563.089844 109.523438 567.917969 110.253906 C 574.460938 111.246094 579.152344 104.347656 587.074219 104.035156 C 591.503906 103.863281 594.515625 106.265625 598.449219 109.300781 C 611.382812 119.285156 615.316406 110.195312 623.777344 108.296875 C 625.671875 107.871094 626.996094 107.890625 630.441406 107.921875 C 632.007812 107.941406 633.679688 108.601562 634.308594 109.113281 C 634.367188 109.164062 634.394531 109.226562 634.394531 109.300781 C 634.394531 109.375 634.367188 109.4375 634.308594 109.488281 C 633.402344 110.054688 631.773438 110.371094 630.699219 110.378906 C 626.085938 110.421875 624.015625 110.058594 618.835938 113.082031 Z M 618.835938 113.082031 " fill-opacity="1" fill-rule="nonzero"/><g fill="#ffffff" fill-opacity="1"><g transform="translate(161.820778, 77.484574)"><g><path d="M 32.46875 -0.453125 L 32.828125 -0.453125 L 32.828125 0 L 22.625 0 L 22.625 -0.453125 L 23.03125 -0.453125 C 23.664062 -0.453125 24.140625 -0.65625 24.453125 -1.0625 C 24.773438 -1.46875 24.9375 -1.851562 24.9375 -2.21875 C 24.9375 -2.582031 24.878906 -2.945312 24.765625 -3.3125 L 21.859375 -11.015625 L 9.609375 -11.015625 L 6.578125 -3.265625 C 6.453125 -2.898438 6.390625 -2.539062 6.390625 -2.1875 C 6.390625 -1.84375 6.546875 -1.46875 6.859375 -1.0625 C 7.179688 -0.65625 7.660156 -0.453125 8.296875 -0.453125 L 8.703125 -0.453125 L 8.703125 0 L -0.40625 0 L -0.40625 -0.453125 L 0 -0.453125 C 0.757812 -0.453125 1.5 -0.691406 2.21875 -1.171875 C 2.945312 -1.660156 3.535156 -2.375 3.984375 -3.3125 L 14.234375 -27.703125 C 15.359375 -30.148438 15.921875 -31.707031 15.921875 -32.375 L 16.328125 -32.375 L 28.484375 -3.3125 C 28.898438 -2.375 29.46875 -1.660156 30.1875 -1.171875 C 30.914062 -0.691406 31.675781 -0.453125 32.46875 -0.453125 Z M 10.15625 -12.375 L 21.3125 -12.375 L 15.875 -26.9375 Z M 10.15625 -12.375 "/></g></g></g><g fill="#ffffff" fill-opacity="1"><g transform="translate(194.094375, 77.484574)"><g><path d="M 35.28125 -31.28125 C 34.519531 -31.28125 33.867188 -31.015625 33.328125 -30.484375 C 32.785156 -29.960938 32.5 -29.320312 32.46875 -28.5625 L 32.46875 -5.171875 C 32.46875 -3.421875 32.570312 -1.757812 32.78125 -0.1875 L 32.875 0.640625 L 32.46875 0.640625 L 7.75 -25.75 L 7.75 -3.171875 C 7.75 -2.421875 8.019531 -1.78125 8.5625 -1.25 C 9.113281 -0.71875 9.765625 -0.453125 10.515625 -0.453125 L 11.375 -0.453125 L 11.375 0 L 2.046875 0 L 2.046875 -0.453125 L 2.90625 -0.453125 C 3.65625 -0.453125 4.300781 -0.71875 4.84375 -1.25 C 5.394531 -1.78125 5.671875 -2.4375 5.671875 -3.21875 L 5.671875 -26.75 C 5.671875 -28.59375 5.5625 -30.238281 5.34375 -31.6875 L 5.265625 -32.421875 L 5.71875 -32.421875 L 30.421875 -6.03125 L 30.421875 -28.515625 C 30.390625 -29.304688 30.101562 -29.960938 29.5625 -30.484375 C 29.019531 -31.015625 28.367188 -31.28125 27.609375 -31.28125 L 26.75 -31.28125 L 26.75 -31.734375 L 36.09375 -31.734375 L 36.09375 -31.28125 Z M 35.28125 -31.28125 "/></g></g></g><g fill="#ffffff" fill-opacity="1"><g transform="translate(232.215283, 77.484574)"><g><path d="M 35.28125 -31.28125 C 34.519531 -31.28125 33.867188 -31.015625 33.328125 -30.484375 C 32.785156 -29.960938 32.5 -29.320312 32.46875 -28.5625 L 32.46875 -5.171875 C 32.46875 -3.421875 32.570312 -1.757812 32.78125 -0.1875 L 32.875 0.640625 L 32.46875 0.640625 L 7.75 -25.75 L 7.75 -3.171875 C 7.75 -2.421875 8.019531 -1.78125 8.5625 -1.25 C 9.113281 -0.71875 9.765625 -0.453125 10.515625 -0.453125 L 11.375 -0.453125 L 11.375 0 L 2.046875 0 L 2.046875 -0.453125 L 2.90625 -0.453125 C 3.65625 -0.453125 4.300781 -0.71875 4.84375 -1.25 C 5.394531 -1.78125 5.671875 -2.4375 5.671875 -3.21875 L 5.671875 -26.75 C 5.671875 -28.59375 5.5625 -30.238281 5.34375 -31.6875 L 5.265625 -32.421875 L 5.71875 -32.421875 L 30.421875 -6.03125 L 30.421875 -28.515625 C 30.390625 -29.304688 30.101562 -29.960938 29.5625 -30.484375 C 29.019531 -31.015625 28.367188 -31.28125 27.609375 -31.28125 L 26.75 -31.28125 L 26.75 -31.734375 L 36.09375 -31.734375 L 36.09375 -31.28125 Z M 35.28125 -31.28125 "/></g></g></g><g fill="#ffffff" fill-opacity="1"><g transform="translate(270.336192, 77.484574)"><g><path d="M 6.65625 -27.8125 C 9.894531 -30.851562 14.09375 -32.375 19.25 -32.375 C 24.40625 -32.375 28.597656 -30.851562 31.828125 -27.8125 C 35.066406 -24.78125 36.6875 -20.800781 36.6875 -15.875 C 36.6875 -10.945312 35.066406 -6.960938 31.828125 -3.921875 C 28.597656 -0.878906 24.40625 0.640625 19.25 0.640625 C 14.09375 0.640625 9.894531 -0.878906 6.65625 -3.921875 C 3.425781 -6.960938 1.8125 -10.945312 1.8125 -15.875 C 1.8125 -20.800781 3.425781 -24.78125 6.65625 -27.8125 Z M 9.140625 -4.890625 C 11.691406 -2.109375 15.050781 -0.71875 19.21875 -0.71875 C 23.394531 -0.71875 26.757812 -2.109375 29.3125 -4.890625 C 31.863281 -7.671875 33.140625 -11.328125 33.140625 -15.859375 C 33.140625 -20.398438 31.863281 -24.0625 29.3125 -26.84375 C 26.757812 -29.625 23.394531 -31.015625 19.21875 -31.015625 C 15.050781 -31.015625 11.691406 -29.625 9.140625 -26.84375 C 6.585938 -24.0625 5.3125 -20.398438 5.3125 -15.859375 C 5.3125 -11.328125 6.585938 -7.671875 9.140625 -4.890625 Z M 9.140625 -4.890625 "/></g></g></g><g fill="#ffffff" fill-opacity="1"><g transform="translate(308.774399, 77.484574)"><g><path d="M 35.28125 -31.28125 C 34.519531 -31.28125 33.867188 -31.015625 33.328125 -30.484375 C 32.785156 -29.960938 32.5 -29.320312 32.46875 -28.5625 L 32.46875 -5.171875 C 32.46875 -3.421875 32.570312 -1.757812 32.78125 -0.1875 L 32.875 0.640625 L 32.46875 0.640625 L 7.75 -25.75 L 7.75 -3.171875 C 7.75 -2.421875 8.019531 -1.78125 8.5625 -1.25 C 9.113281 -0.71875 9.765625 -0.453125 10.515625 -0.453125 L 11.375 -0.453125 L 11.375 0 L 2.046875 0 L 2.046875 -0.453125 L 2.90625 -0.453125 C 3.65625 -0.453125 4.300781 -0.71875 4.84375 -1.25 C 5.394531 -1.78125 5.671875 -2.4375 5.671875 -3.21875 L 5.671875 -26.75 C 5.671875 -28.59375 5.5625 -30.238281 5.34375 -31.6875 L 5.265625 -32.421875 L 5.71875 -32.421875 L 30.421875 -6.03125 L 30.421875 -28.515625 C 30.390625 -29.304688 30.101562 -29.960938 29.5625 -30.484375 C 29.019531 -31.015625 28.367188 -31.28125 27.609375 -31.28125 L 26.75 -31.28125 L 26.75 -31.734375 L 36.09375 -31.734375 L 36.09375 -31.28125 Z M 35.28125 -31.28125 "/></g></g></g><g fill="#ffffff" fill-opacity="1"><g transform="translate(346.895307, 77.484574)"><g><path d="M 18.90625 0.640625 C 14.132812 0.609375 10.242188 -0.914062 7.234375 -3.9375 C 4.222656 -6.96875 2.71875 -10.953125 2.71875 -15.890625 C 2.71875 -20.835938 4.222656 -24.820312 7.234375 -27.84375 C 10.242188 -30.863281 14.226562 -32.375 19.1875 -32.375 C 23.226562 -32.375 26.804688 -31.347656 29.921875 -29.296875 L 30.828125 -22.90625 L 30.421875 -22.90625 C 29.753906 -25.5 28.410156 -27.5 26.390625 -28.90625 C 24.367188 -30.3125 21.96875 -31.015625 19.1875 -31.015625 C 15.21875 -31.015625 12.046875 -29.640625 9.671875 -26.890625 C 7.304688 -24.140625 6.125 -20.492188 6.125 -15.953125 C 6.125 -11.421875 7.296875 -7.769531 9.640625 -5 C 11.984375 -2.238281 15.070312 -0.8125 18.90625 -0.71875 C 22.289062 -0.71875 25.117188 -1.640625 27.390625 -3.484375 C 29.835938 -5.484375 31.316406 -8.734375 31.828125 -13.234375 L 32.1875 -13.234375 L 31.65625 -6.125 C 28.90625 -1.613281 24.65625 0.640625 18.90625 0.640625 Z M 18.90625 0.640625 "/></g></g></g><g fill="#ffffff" fill-opacity="1"><g transform="translate(381.344631, 77.484574)"><g><path d="M 3.3125 -0.453125 C 4.09375 -0.453125 4.765625 -0.726562 5.328125 -1.28125 C 5.890625 -1.84375 6.1875 -2.519531 6.21875 -3.3125 L 6.21875 -28.703125 C 6.21875 -29.429688 5.925781 -30.039062 5.34375 -30.53125 C 4.769531 -31.03125 4.09375 -31.28125 3.3125 -31.28125 L 2.765625 -31.28125 L 2.71875 -31.734375 L 16 -31.734375 C 16.9375 -31.734375 17.957031 -31.820312 19.0625 -32 C 20.164062 -32.1875 20.945312 -32.375 21.40625 -32.5625 L 21.40625 -26.84375 L 20.953125 -26.84375 L 20.953125 -27.65625 C 20.953125 -28.382812 20.703125 -29.003906 20.203125 -29.515625 C 19.703125 -30.035156 19.101562 -30.304688 18.40625 -30.328125 L 9.15625 -30.328125 L 9.15625 -16.328125 L 16.828125 -16.328125 C 17.429688 -16.359375 17.941406 -16.582031 18.359375 -17 C 18.785156 -17.425781 19 -17.957031 19 -18.59375 L 19 -19.21875 L 19.453125 -19.21875 L 19.453125 -12.0625 L 19 -12.0625 L 19 -12.734375 C 19 -13.335938 18.796875 -13.851562 18.390625 -14.28125 C 17.984375 -14.707031 17.476562 -14.9375 16.875 -14.96875 L 9.15625 -14.96875 L 9.15625 -1.40625 L 15.640625 -1.40625 C 17.878906 -1.40625 19.585938 -1.898438 20.765625 -2.890625 C 21.941406 -3.890625 22.925781 -5.375 23.71875 -7.34375 L 24.171875 -7.34375 L 21.53125 0 L 2.71875 0 L 2.71875 -0.453125 Z M 3.3125 -0.453125 "/></g></g></g><g fill="#ffffff" fill-opacity="1"><g transform="translate(407.498934, 77.484574)"><g><path d="M 6.65625 -27.8125 C 9.894531 -30.851562 14.09375 -32.375 19.25 -32.375 C 24.40625 -32.375 28.597656 -30.851562 31.828125 -27.8125 C 35.066406 -24.78125 36.6875 -20.800781 36.6875 -15.875 C 36.6875 -10.945312 35.066406 -6.960938 31.828125 -3.921875 C 28.597656 -0.878906 24.40625 0.640625 19.25 0.640625 C 14.09375 0.640625 9.894531 -0.878906 6.65625 -3.921875 C 3.425781 -6.960938 1.8125 -10.945312 1.8125 -15.875 C 1.8125 -20.800781 3.425781 -24.78125 6.65625 -27.8125 Z M 9.140625 -4.890625 C 11.691406 -2.109375 15.050781 -0.71875 19.21875 -0.71875 C 23.394531 -0.71875 26.757812 -2.109375 29.3125 -4.890625 C 31.863281 -7.671875 33.140625 -11.328125 33.140625 -15.859375 C 33.140625 -20.398438 31.863281 -24.0625 29.3125 -26.84375 C 26.757812 -29.625 23.394531 -31.015625 19.21875 -31.015625 C 15.050781 -31.015625 11.691406 -29.625 9.140625 -26.84375 C 6.585938 -24.0625 5.3125 -20.398438 5.3125 -15.859375 C 5.3125 -11.328125 6.585938 -7.671875 9.140625 -4.890625 Z M 9.140625 -4.890625 "/></g></g></g><g clip-path="url(#ce87b1e32e)"><path fill="#dbb3a9" d="M 416.03125 46.191406 C 416.03125 46.136719 416.035156 46.082031 416.039062 46.03125 C 416.269531 44.769531 416.480469 43.496094 416.734375 42.222656 C 417.132812 40.191406 417.699219 38.191406 418.4375 36.246094 C 419.167969 34.34375 419.984375 32.480469 421.308594 30.898438 C 422.050781 30.003906 422.953125 29.339844 424.210938 29.558594 C 425.167969 29.722656 425.824219 30.234375 426.15625 31.191406 C 426.636719 32.582031 426.300781 33.90625 425.851562 35.191406 C 425.058594 37.511719 423.910156 39.695312 422.445312 41.660156 C 421.519531 42.902344 420.53125 44.109375 419.511719 45.285156 C 418.980469 45.898438 418.332031 46.410156 417.714844 46.949219 C 417.351562 47.261719 416.734375 47.582031 416.285156 47.339844 C 416.039062 47.199219 416.03125 46.855469 416.03125 46.191406 Z M 417.441406 45.734375 L 417.5625 45.761719 C 417.746094 45.550781 417.929688 45.328125 418.121094 45.125 C 419.511719 43.625 420.660156 41.945312 421.769531 40.242188 C 422.890625 38.527344 423.8125 36.691406 424.507812 34.765625 C 424.851562 33.808594 425.125 32.828125 424.910156 31.792969 C 424.761719 31.085938 424.15625 30.707031 423.457031 30.902344 C 422.867188 31.0625 422.484375 31.507812 422.152344 31.957031 C 420.636719 34.003906 419.742188 36.339844 419.019531 38.75 C 418.597656 40.15625 418.253906 41.589844 417.921875 43.027344 C 417.714844 43.917969 417.601562 44.828125 417.441406 45.734375 Z M 432.183594 38.242188 C 433.664062 38.207031 434.566406 39.535156 434.199219 40.917969 C 433.800781 42.433594 432.921875 43.625 431.886719 44.738281 C 430.90625 45.789062 429.746094 46.617188 428.511719 47.347656 C 427.621094 47.871094 426.773438 48.484375 425.851562 48.953125 C 424.617188 49.578125 423.445312 50.367188 422.066406 50.683594 C 421.574219 50.800781 421.089844 50.941406 420.59375 51.050781 C 420.304688 51.113281 419.957031 51.175781 419.824219 50.851562 C 419.730469 50.617188 419.699219 50.253906 419.820312 50.054688 C 420.300781 49.273438 420.828125 48.519531 421.398438 47.800781 C 422.59375 46.316406 423.804688 44.84375 425.046875 43.398438 C 426.179688 42.082031 427.351562 40.792969 428.746094 39.746094 C 429.582031 39.117188 430.40625 38.414062 431.523438 38.304688 C 431.746094 38.292969 431.964844 38.265625 432.183594 38.242188 Z M 421.511719 49.695312 C 421.585938 49.707031 421.632812 49.722656 421.660156 49.710938 C 422.730469 49.199219 423.816406 48.71875 424.851562 48.148438 C 425.921875 47.5625 426.929688 46.875 427.980469 46.253906 C 429.691406 45.238281 431.152344 43.960938 432.25 42.304688 C 432.644531 41.707031 432.964844 41.066406 433.058594 40.34375 C 433.136719 39.722656 432.71875 39.449219 432.238281 39.433594 C 431.652344 39.414062 431.066406 39.585938 430.574219 39.910156 C 428.941406 40.976562 427.621094 42.390625 426.34375 43.835938 C 425.199219 45.140625 424.113281 46.503906 423.011719 47.835938 C 422.511719 48.445312 422.027344 49.0625 421.511719 49.695312 Z M 413.417969 41.9375 C 413.34375 42.6875 413.25 43.4375 413.074219 44.167969 C 412.90625 44.851562 412.703125 45.546875 412.371094 46.167969 C 412.199219 46.492188 411.550781 47.226562 410.613281 46.554688 C 409.792969 45.585938 409.472656 44.667969 409.011719 43.214844 C 408.785156 42.21875 408.40625 41.25 408.203125 40.246094 C 407.808594 38.320312 407.605469 36.96875 407.574219 34.390625 C 407.566406 33.421875 407.605469 32.917969 407.699219 32.195312 C 407.800781 31.421875 407.90625 30.640625 408.332031 29.941406 C 408.945312 28.960938 409.882812 28.699219 410.90625 29.25 C 411.457031 29.546875 411.820312 30.007812 412.152344 30.507812 C 412.789062 31.457031 413.117188 32.515625 413.332031 33.621094 C 414.011719 37 413.59375 40.132812 413.417969 41.9375 Z M 408.636719 34.421875 C 408.636719 36.277344 409.019531 37.808594 409.152344 38.621094 C 409.230469 39.164062 409.339844 39.699219 409.476562 40.230469 C 409.695312 41.011719 409.953125 41.773438 410.207031 42.542969 C 410.476562 43.335938 410.757812 44.128906 411.054688 44.90625 C 411.105469 45.03125 411.25 45.214844 411.351562 45.214844 C 411.570312 45.214844 411.746094 45.054688 411.773438 44.84375 C 411.851562 44.453125 411.957031 44.066406 412.007812 43.664062 C 412.175781 42.402344 412.363281 41.140625 412.46875 39.875 C 412.5625 38.6875 412.667969 37.484375 412.582031 36.296875 C 412.5 35.164062 412.203125 34.046875 411.988281 32.929688 C 411.816406 32.03125 411.347656 31.261719 410.785156 30.550781 C 410.277344 29.90625 409.597656 29.921875 409.230469 30.566406 C 409.144531 30.707031 409.089844 30.875 409.066406 31.039062 C 408.933594 31.992188 408.636719 33.246094 408.636719 34.421875 Z M 408.636719 34.421875 " fill-opacity="1" fill-rule="nonzero"/></g><g fill="#ffffff" fill-opacity="1"><g transform="translate(251.791166, 100.123895)"><g><path d="M 4.757812 0.105469 C 7.039062 0.105469 8.867188 -1.734375 8.867188 -4 C 8.867188 -6.265625 7.039062 -8.105469 4.757812 -8.105469 C 2.492188 -8.105469 0.652344 -6.265625 0.652344 -4 C 0.652344 -1.734375 2.492188 0.105469 4.757812 0.105469 Z M 4.757812 -0.746094 C 2.960938 -0.746094 1.507812 -2.1875 1.507812 -4 C 1.507812 -5.8125 2.960938 -7.253906 4.757812 -7.253906 C 6.574219 -7.253906 8.011719 -5.8125 8.011719 -4 C 8.011719 -2.1875 6.574219 -0.746094 4.757812 -0.746094 Z M 4.757812 -0.746094 "/></g></g></g><g fill="#ffffff" fill-opacity="1"><g transform="translate(263.60485, 100.123895)"><g><path d="M 6.71875 -8 L 6.71875 -1.425781 L 1.773438 -8 L 0.972656 -8 L 0.972656 0 L 1.828125 0 L 1.828125 -6.574219 L 6.757812 0 L 7.558594 0 L 7.558594 -8 Z M 6.71875 -8 "/></g></g></g><g fill="#ffffff" fill-opacity="1"><g transform="translate(274.418779, 100.123895)"><g><path d="M 1.828125 -0.851562 L 1.828125 -8 L 0.972656 -8 L 0.972656 0 L 4.800781 0 L 4.800781 -0.851562 Z M 1.828125 -0.851562 "/></g></g></g><g fill="#ffffff" fill-opacity="1"><g transform="translate(281.620251, 100.123895)"><g><path d="M 1.039062 0 L 1.894531 0 L 1.894531 -8 L 1.039062 -8 Z M 1.039062 0 "/></g></g></g><g fill="#ffffff" fill-opacity="1"><g transform="translate(286.822203, 100.123895)"><g><path d="M 6.71875 -8 L 6.71875 -1.425781 L 1.773438 -8 L 0.972656 -8 L 0.972656 0 L 1.828125 0 L 1.828125 -6.574219 L 6.757812 0 L 7.558594 0 L 7.558594 -8 Z M 6.71875 -8 "/></g></g></g><g fill="#ffffff" fill-opacity="1"><g transform="translate(297.636129, 100.123895)"><g><path d="M 5.414062 -7.171875 L 5.414062 -8 L 1.039062 -8 L 1.039062 0 L 5.414062 0 L 5.414062 -0.828125 L 1.894531 -0.828125 L 1.894531 -3.585938 L 4.960938 -3.585938 L 4.960938 -4.414062 L 1.894531 -4.414062 L 1.894531 -7.171875 Z M 5.414062 -7.171875 "/></g></g></g><g fill="#ffffff" fill-opacity="1"><g transform="translate(306.130621, 100.123895)"><g/></g></g><g fill="#ffffff" fill-opacity="1"><g transform="translate(311.625838, 100.123895)"><g><path d="M 2.984375 0.105469 C 4.347656 0.105469 5.453125 -0.707031 5.453125 -2.105469 C 5.453125 -4.824219 1.558594 -4.160156 1.558594 -6.066406 C 1.558594 -6.867188 2.214844 -7.253906 2.960938 -7.253906 C 3.574219 -7.253906 4.078125 -7 4.398438 -6.546875 L 5.066406 -7.105469 C 4.625 -7.664062 3.851562 -8.105469 2.933594 -8.105469 C 1.707031 -8.105469 0.707031 -7.304688 0.707031 -6 C 0.707031 -3.425781 4.597656 -4.066406 4.597656 -2.078125 C 4.597656 -1.226562 3.894531 -0.746094 3 -0.746094 C 2.09375 -0.746094 1.441406 -1.238281 1.160156 -1.972656 L 0.386719 -1.519531 C 0.800781 -0.535156 1.800781 0.105469 2.984375 0.105469 Z M 2.984375 0.105469 "/></g></g></g><g fill="#ffffff" fill-opacity="1"><g transform="translate(319.747084, 100.123895)"><g><path d="M 6.238281 -8 L 6.238281 -4.425781 L 1.828125 -4.425781 L 1.828125 -8 L 0.972656 -8 L 0.972656 0 L 1.828125 0 L 1.828125 -3.574219 L 6.238281 -3.574219 L 6.238281 0 L 7.09375 0 L 7.09375 -8 Z M 6.238281 -8 "/></g></g></g><g fill="#ffffff" fill-opacity="1"><g transform="translate(330.094458, 100.123895)"><g><path d="M 4.757812 0.105469 C 7.039062 0.105469 8.867188 -1.734375 8.867188 -4 C 8.867188 -6.265625 7.039062 -8.105469 4.757812 -8.105469 C 2.492188 -8.105469 0.652344 -6.265625 0.652344 -4 C 0.652344 -1.734375 2.492188 0.105469 4.757812 0.105469 Z M 4.757812 -0.746094 C 2.960938 -0.746094 1.507812 -2.1875 1.507812 -4 C 1.507812 -5.8125 2.960938 -7.253906 4.757812 -7.253906 C 6.574219 -7.253906 8.011719 -5.8125 8.011719 -4 C 8.011719 -2.1875 6.574219 -0.746094 4.757812 -0.746094 Z M 4.757812 -0.746094 "/></g></g></g><g fill="#ffffff" fill-opacity="1"><g transform="translate(341.908141, 100.123895)"><g><path d="M 3.839844 -8 L 0.972656 -8 L 0.972656 0 L 1.828125 0 L 1.828125 -3.558594 L 3.839844 -3.558594 C 5.078125 -3.558594 6.066406 -4.53125 6.066406 -5.773438 C 6.066406 -7 5.078125 -8 3.839844 -8 Z M 3.757812 -4.371094 L 1.828125 -4.371094 L 1.828125 -7.171875 L 3.757812 -7.171875 C 4.558594 -7.171875 5.210938 -6.613281 5.210938 -5.757812 C 5.210938 -4.878906 4.558594 -4.371094 3.757812 -4.371094 Z M 3.757812 -4.371094 "/></g></g></g></svg>