<svg xmlns="http://www.w3.org/2000/svg" xmlns:xlink="http://www.w3.org/1999/xlink" width="75" zoomAndPan="magnify" viewBox="0 0 56.25 56.249997" height="75" preserveAspectRatio="xMidYMid meet" version="1.0"><defs><g/><clipPath id="42159819c3"><path d="M 0 0 L 55.511719 0 L 55.511719 55.511719 L 0 55.511719 Z M 0 0 " clip-rule="nonzero"/></clipPath><clipPath id="bde69afe4d"><path d="M 21 10.460938 L 31 10.460938 L 31 21 L 21 21 Z M 21 10.460938 " clip-rule="nonzero"/></clipPath><clipPath id="8d6232266e"><path d="M 17.398438 16 L 37 16 L 37 32.664062 L 17.398438 32.664062 Z M 17.398438 16 " clip-rule="nonzero"/></clipPath><clipPath id="fd0423a65a"><path d="M 19 16 L 38.125 16 L 38.125 32.664062 L 19 32.664062 Z M 19 16 " clip-rule="nonzero"/></clipPath><clipPath id="155488590f"><path d="M 24 10.460938 L 34 10.460938 L 34 21 L 24 21 Z M 24 10.460938 " clip-rule="nonzero"/></clipPath></defs><g clip-path="url(#42159819c3)"><path fill="#ffffff" d="M 0 0 L 56.25 0 L 56.25 63.652344 L 0 63.652344 Z M 0 0 " fill-opacity="1" fill-rule="nonzero"/><path fill="#ffffff" d="M 0 0 L 55.511719 0 L 55.511719 55.511719 L 0 55.511719 Z M 0 0 " fill-opacity="1" fill-rule="nonzero"/><path fill="#f8f9fa" d="M 0 0 L 55.511719 0 L 55.511719 55.511719 L 0 55.511719 Z M 0 0 " fill-opacity="1" fill-rule="nonzero"/></g><g clip-path="url(#bde69afe4d)"><path fill="#100f0f" d="M 30.382812 20.476562 C 30.09375 20.476562 29.859375 20.242188 29.859375 19.953125 L 29.859375 15.023438 C 29.859375 13.082031 28.28125 11.503906 26.339844 11.503906 C 24.394531 11.503906 22.816406 13.082031 22.816406 15.023438 L 22.816406 19.953125 C 22.816406 20.242188 22.582031 20.476562 22.292969 20.476562 C 22.003906 20.476562 21.769531 20.242188 21.769531 19.953125 L 21.769531 15.023438 C 21.769531 12.503906 23.820312 10.457031 26.339844 10.457031 C 28.859375 10.457031 30.90625 12.503906 30.90625 15.023438 L 30.90625 19.953125 C 30.90625 20.242188 30.675781 20.476562 30.382812 20.476562 " fill-opacity="1" fill-rule="nonzero"/></g><g clip-path="url(#8d6232266e)"><path fill="#f58013" d="M 36.023438 31.398438 C 36.023438 32.09375 35.449219 32.667969 34.75 32.667969 L 18.703125 32.667969 C 18.003906 32.667969 17.429688 32.09375 17.429688 31.398438 L 17.445312 17.933594 C 17.445312 17.234375 18.019531 16.664062 18.71875 16.664062 L 34.449219 16.664062 C 35.148438 16.664062 35.71875 17.234375 35.71875 17.933594 L 36.023438 31.398438 " fill-opacity="1" fill-rule="nonzero"/></g><g clip-path="url(#fd0423a65a)"><path fill="#f9af23" d="M 38.101562 31.398438 C 38.101562 32.09375 37.53125 32.667969 36.832031 32.667969 L 20.785156 32.667969 C 20.085938 32.667969 19.511719 32.09375 19.511719 31.398438 L 19.527344 17.933594 C 19.527344 17.234375 20.097656 16.664062 20.796875 16.664062 L 36.527344 16.664062 C 37.226562 16.664062 37.800781 17.234375 37.800781 17.933594 L 38.101562 31.398438 " fill-opacity="1" fill-rule="nonzero"/></g><path fill="#f58013" d="M 25.757812 19.953125 C 25.757812 20.621094 25.214844 21.164062 24.542969 21.164062 C 23.871094 21.164062 23.328125 20.621094 23.328125 19.953125 C 23.328125 19.28125 23.871094 18.738281 24.542969 18.738281 C 25.214844 18.738281 25.757812 19.28125 25.757812 19.953125 " fill-opacity="1" fill-rule="nonzero"/><path fill="#f58013" d="M 34 19.953125 C 34 20.621094 33.453125 21.164062 32.785156 21.164062 C 32.113281 21.164062 31.566406 20.621094 31.566406 19.953125 C 31.566406 19.28125 32.113281 18.738281 32.785156 18.738281 C 33.453125 18.738281 34 19.28125 34 19.953125 " fill-opacity="1" fill-rule="nonzero"/><g clip-path="url(#155488590f)"><path fill="#141515" d="M 32.710938 20.476562 C 32.421875 20.476562 32.1875 20.242188 32.1875 19.953125 L 32.1875 15.023438 C 32.1875 13.082031 30.605469 11.503906 28.664062 11.503906 C 26.722656 11.503906 25.140625 13.082031 25.140625 15.023438 L 25.140625 19.953125 C 25.140625 20.242188 24.90625 20.476562 24.617188 20.476562 C 24.328125 20.476562 24.09375 20.242188 24.09375 19.953125 L 24.09375 15.023438 C 24.09375 12.503906 26.144531 10.457031 28.664062 10.457031 C 31.183594 10.457031 33.234375 12.503906 33.234375 15.023438 L 33.234375 19.953125 C 33.234375 20.242188 33 20.476562 32.710938 20.476562 " fill-opacity="1" fill-rule="nonzero"/></g><path fill="#ffffff" d="M 33.75 24.058594 L 33.550781 24.046875 C 33.214844 24.03125 32.933594 24.261719 32.917969 24.5625 L 32.839844 26.257812 L 32.839844 26.253906 L 32.617188 25.863281 L 30.617188 22.324219 C 30.476562 22.078125 30.164062 21.988281 29.914062 22.128906 L 29.765625 22.210938 C 29.519531 22.351562 29.429688 22.664062 29.570312 22.914062 L 30.527344 24.609375 C 30.410156 24.582031 30.28125 24.597656 30.164062 24.660156 L 30.015625 24.746094 C 29.769531 24.886719 29.679688 25.199219 29.820312 25.445312 C 29.679688 25.199219 29.367188 25.113281 29.121094 25.25 L 28.96875 25.335938 C 28.722656 25.476562 28.632812 25.789062 28.773438 26.035156 C 28.632812 25.789062 28.320312 25.703125 28.074219 25.84375 L 27.925781 25.925781 C 27.675781 26.066406 27.589844 26.378906 27.726562 26.625 L 28.582031 28.136719 C 28.582031 28.136719 29.710938 30.199219 30.183594 30.765625 C 30.621094 31.296875 30.714844 31.164062 30.910156 31.355469 C 31.195312 31.640625 31.46875 31.875 31.714844 31.734375 L 34.066406 30.410156 C 34.316406 30.269531 34.308594 29.894531 34.160156 29.523438 C 34.105469 29.386719 34.035156 29.007812 34.070312 28.945312 C 34.070312 28.945312 34.140625 28.695312 34.136719 28.652344 L 34.328125 24.628906 C 34.339844 24.328125 34.082031 24.074219 33.75 24.058594 " fill-opacity="1" fill-rule="nonzero"/><g fill="#000000" fill-opacity="1"><g transform="translate(9.416885, 40.320105)"><g><path d="M 0.65625 -4.125 C 0.90625 -4.226562 1.140625 -4.28125 1.359375 -4.28125 C 1.546875 -4.28125 1.742188 -4.210938 1.953125 -4.078125 C 2.054688 -3.992188 2.175781 -3.847656 2.3125 -3.640625 C 2.40625 -3.484375 2.519531 -3.207031 2.65625 -2.8125 L 3.34375 -0.875 C 3.5 -0.4375 3.65625 -0.09375 3.8125 0.15625 C 3.976562 0.414062 4.128906 0.609375 4.265625 0.734375 C 4.398438 0.867188 4.539062 0.960938 4.6875 1.015625 C 4.832031 1.066406 4.953125 1.09375 5.046875 1.09375 C 5.148438 1.09375 5.238281 1.085938 5.3125 1.078125 L 5.3125 1.125 C 5.132812 1.1875 4.957031 1.21875 4.78125 1.21875 C 4.613281 1.21875 4.441406 1.171875 4.265625 1.078125 C 4.097656 0.992188 3.9375 0.875 3.78125 0.71875 C 3.457031 0.394531 3.1875 -0.0976562 2.96875 -0.765625 L 2.75 -1.40625 L 1.203125 -1.40625 L 0.8125 -0.40625 C 0.789062 -0.363281 0.78125 -0.316406 0.78125 -0.265625 C 0.78125 -0.222656 0.800781 -0.175781 0.84375 -0.125 C 0.882812 -0.0820312 0.945312 -0.0625 1.03125 -0.0625 L 1.078125 -0.0625 L 1.078125 0 L -0.0625 0 L -0.0625 -0.0625 L 0 -0.0625 C 0.0820312 -0.0625 0.164062 -0.0859375 0.25 -0.140625 C 0.34375 -0.191406 0.414062 -0.269531 0.46875 -0.375 L 1.875 -3.71875 C 1.664062 -4.007812 1.410156 -4.15625 1.109375 -4.15625 C 0.972656 -4.15625 0.832031 -4.128906 0.6875 -4.078125 Z M 1.265625 -1.578125 L 2.6875 -1.578125 L 2.25 -2.890625 C 2.15625 -3.140625 2.078125 -3.335938 2.015625 -3.484375 Z M 1.265625 -1.578125 "/></g></g></g><g fill="#000000" fill-opacity="1"><g transform="translate(13.421068, 40.320105)"><g><path d="M 5.921875 0.859375 C 5.628906 0.953125 5.363281 0.96875 5.125 0.90625 C 4.863281 0.832031 4.644531 0.726562 4.46875 0.59375 C 4.289062 0.445312 4.109375 0.273438 3.921875 0.078125 L 0.96875 -3.203125 L 0.96875 -0.390625 C 0.96875 -0.265625 1.023438 -0.164062 1.140625 -0.09375 C 1.191406 -0.0703125 1.25 -0.0625 1.3125 -0.0625 L 1.40625 -0.0625 L 1.40625 0 L 0.25 0 L 0.25 -0.0625 L 0.359375 -0.0625 C 0.453125 -0.0625 0.53125 -0.09375 0.59375 -0.15625 C 0.664062 -0.21875 0.703125 -0.300781 0.703125 -0.40625 L 0.703125 -3.484375 C 0.679688 -3.515625 0.640625 -3.566406 0.578125 -3.640625 C 0.523438 -3.710938 0.476562 -3.769531 0.4375 -3.8125 C 0.40625 -3.851562 0.359375 -3.910156 0.296875 -3.984375 C 0.234375 -4.054688 0.175781 -4.113281 0.125 -4.15625 C 0.0703125 -4.207031 0.0078125 -4.265625 -0.0625 -4.328125 C -0.175781 -4.410156 -0.296875 -4.46875 -0.421875 -4.5 C -0.554688 -4.539062 -0.664062 -4.5625 -0.75 -4.5625 C -0.84375 -4.5625 -0.9375 -4.546875 -1.03125 -4.515625 L -1.0625 -4.578125 C -0.875 -4.648438 -0.695312 -4.6875 -0.53125 -4.6875 C -0.363281 -4.6875 -0.21875 -4.664062 -0.09375 -4.625 C 0.0195312 -4.59375 0.144531 -4.523438 0.28125 -4.421875 C 0.414062 -4.316406 0.523438 -4.222656 0.609375 -4.140625 C 0.703125 -4.054688 0.8125 -3.941406 0.9375 -3.796875 L 3.78125 -0.65625 L 3.78125 -3.53125 C 3.769531 -3.632812 3.726562 -3.71875 3.65625 -3.78125 C 3.59375 -3.84375 3.515625 -3.875 3.421875 -3.875 L 3.3125 -3.875 L 3.3125 -3.9375 L 4.484375 -3.9375 L 4.484375 -3.875 L 4.375 -3.875 C 4.28125 -3.875 4.195312 -3.84375 4.125 -3.78125 C 4.0625 -3.71875 4.03125 -3.640625 4.03125 -3.546875 L 4.03125 -0.359375 C 4.0625 -0.316406 4.113281 -0.253906 4.1875 -0.171875 C 4.257812 -0.0976562 4.304688 -0.0390625 4.328125 0 C 4.359375 0.03125 4.398438 0.078125 4.453125 0.140625 C 4.515625 0.203125 4.5625 0.25 4.59375 0.28125 C 4.632812 0.320312 4.6875 0.367188 4.75 0.421875 C 4.8125 0.472656 4.863281 0.515625 4.90625 0.546875 C 4.957031 0.585938 5.015625 0.625 5.078125 0.65625 C 5.171875 0.71875 5.273438 0.757812 5.390625 0.78125 C 5.503906 0.8125 5.597656 0.828125 5.671875 0.828125 C 5.742188 0.828125 5.820312 0.816406 5.90625 0.796875 Z M 5.921875 0.859375 "/></g></g></g><g fill="#000000" fill-opacity="1"><g transform="translate(18.150726, 40.320105)"><g><path d="M 5.921875 0.859375 C 5.628906 0.953125 5.363281 0.96875 5.125 0.90625 C 4.863281 0.832031 4.644531 0.726562 4.46875 0.59375 C 4.289062 0.445312 4.109375 0.273438 3.921875 0.078125 L 0.96875 -3.203125 L 0.96875 -0.390625 C 0.96875 -0.265625 1.023438 -0.164062 1.140625 -0.09375 C 1.191406 -0.0703125 1.25 -0.0625 1.3125 -0.0625 L 1.40625 -0.0625 L 1.40625 0 L 0.25 0 L 0.25 -0.0625 L 0.359375 -0.0625 C 0.453125 -0.0625 0.53125 -0.09375 0.59375 -0.15625 C 0.664062 -0.21875 0.703125 -0.300781 0.703125 -0.40625 L 0.703125 -3.484375 C 0.679688 -3.515625 0.640625 -3.566406 0.578125 -3.640625 C 0.523438 -3.710938 0.476562 -3.769531 0.4375 -3.8125 C 0.40625 -3.851562 0.359375 -3.910156 0.296875 -3.984375 C 0.234375 -4.054688 0.175781 -4.113281 0.125 -4.15625 C 0.0703125 -4.207031 0.0078125 -4.265625 -0.0625 -4.328125 C -0.175781 -4.410156 -0.296875 -4.46875 -0.421875 -4.5 C -0.554688 -4.539062 -0.664062 -4.5625 -0.75 -4.5625 C -0.84375 -4.5625 -0.9375 -4.546875 -1.03125 -4.515625 L -1.0625 -4.578125 C -0.875 -4.648438 -0.695312 -4.6875 -0.53125 -4.6875 C -0.363281 -4.6875 -0.21875 -4.664062 -0.09375 -4.625 C 0.0195312 -4.59375 0.144531 -4.523438 0.28125 -4.421875 C 0.414062 -4.316406 0.523438 -4.222656 0.609375 -4.140625 C 0.703125 -4.054688 0.8125 -3.941406 0.9375 -3.796875 L 3.78125 -0.65625 L 3.78125 -3.53125 C 3.769531 -3.632812 3.726562 -3.71875 3.65625 -3.78125 C 3.59375 -3.84375 3.515625 -3.875 3.421875 -3.875 L 3.3125 -3.875 L 3.3125 -3.9375 L 4.484375 -3.9375 L 4.484375 -3.875 L 4.375 -3.875 C 4.28125 -3.875 4.195312 -3.84375 4.125 -3.78125 C 4.0625 -3.71875 4.03125 -3.640625 4.03125 -3.546875 L 4.03125 -0.359375 C 4.0625 -0.316406 4.113281 -0.253906 4.1875 -0.171875 C 4.257812 -0.0976562 4.304688 -0.0390625 4.328125 0 C 4.359375 0.03125 4.398438 0.078125 4.453125 0.140625 C 4.515625 0.203125 4.5625 0.25 4.59375 0.28125 C 4.632812 0.320312 4.6875 0.367188 4.75 0.421875 C 4.8125 0.472656 4.863281 0.515625 4.90625 0.546875 C 4.957031 0.585938 5.015625 0.625 5.078125 0.65625 C 5.171875 0.71875 5.273438 0.757812 5.390625 0.78125 C 5.503906 0.8125 5.597656 0.828125 5.671875 0.828125 C 5.742188 0.828125 5.820312 0.816406 5.90625 0.796875 Z M 5.921875 0.859375 "/></g></g></g><g fill="#000000" fill-opacity="1"><g transform="translate(22.880384, 40.320105)"><g><path d="M 1.5625 -2.625 C 1.539062 -2.675781 1.53125 -2.71875 1.53125 -2.75 C 1.53125 -2.789062 1.53125 -2.832031 1.53125 -2.875 C 1.539062 -2.914062 1.550781 -2.972656 1.5625 -3.046875 C 1.582031 -3.128906 1.609375 -3.207031 1.640625 -3.28125 C 1.679688 -3.363281 1.722656 -3.441406 1.765625 -3.515625 C 1.816406 -3.585938 1.878906 -3.648438 1.953125 -3.703125 C 2.035156 -3.765625 2.125 -3.820312 2.21875 -3.875 C 2.414062 -3.96875 2.65625 -4.015625 2.9375 -4.015625 C 3.507812 -4.015625 3.976562 -3.820312 4.34375 -3.4375 C 4.707031 -3.0625 4.890625 -2.578125 4.890625 -1.984375 C 4.890625 -1.390625 4.675781 -0.894531 4.25 -0.5 C 3.820312 -0.113281 3.28125 0.078125 2.625 0.078125 C 1.96875 0.078125 1.421875 -0.113281 0.984375 -0.5 C 0.554688 -0.894531 0.34375 -1.40625 0.34375 -2.03125 C 0.34375 -2.425781 0.4375 -2.78125 0.625 -3.09375 C 0.8125 -3.40625 1.078125 -3.648438 1.421875 -3.828125 L 1.453125 -3.78125 C 1.210938 -3.613281 1.035156 -3.378906 0.921875 -3.078125 C 0.816406 -2.773438 0.765625 -2.453125 0.765625 -2.109375 C 0.765625 -1.472656 0.9375 -0.976562 1.28125 -0.625 C 1.632812 -0.269531 2.078125 -0.09375 2.609375 -0.09375 C 3.148438 -0.09375 3.59375 -0.269531 3.9375 -0.625 C 4.28125 -0.988281 4.453125 -1.460938 4.453125 -2.046875 C 4.453125 -2.546875 4.316406 -2.96875 4.046875 -3.3125 C 3.773438 -3.664062 3.390625 -3.84375 2.890625 -3.84375 C 2.671875 -3.84375 2.472656 -3.804688 2.296875 -3.734375 C 1.972656 -3.585938 1.753906 -3.359375 1.640625 -3.046875 C 1.617188 -2.953125 1.609375 -2.867188 1.609375 -2.796875 C 1.609375 -2.734375 1.609375 -2.679688 1.609375 -2.640625 Z M 1.5625 -2.625 "/></g></g></g><g fill="#000000" fill-opacity="1"><g transform="translate(28.104942, 40.320105)"><g><path d="M 5.921875 0.859375 C 5.628906 0.953125 5.363281 0.96875 5.125 0.90625 C 4.863281 0.832031 4.644531 0.726562 4.46875 0.59375 C 4.289062 0.445312 4.109375 0.273438 3.921875 0.078125 L 0.96875 -3.203125 L 0.96875 -0.390625 C 0.96875 -0.265625 1.023438 -0.164062 1.140625 -0.09375 C 1.191406 -0.0703125 1.25 -0.0625 1.3125 -0.0625 L 1.40625 -0.0625 L 1.40625 0 L 0.25 0 L 0.25 -0.0625 L 0.359375 -0.0625 C 0.453125 -0.0625 0.53125 -0.09375 0.59375 -0.15625 C 0.664062 -0.21875 0.703125 -0.300781 0.703125 -0.40625 L 0.703125 -3.484375 C 0.679688 -3.515625 0.640625 -3.566406 0.578125 -3.640625 C 0.523438 -3.710938 0.476562 -3.769531 0.4375 -3.8125 C 0.40625 -3.851562 0.359375 -3.910156 0.296875 -3.984375 C 0.234375 -4.054688 0.175781 -4.113281 0.125 -4.15625 C 0.0703125 -4.207031 0.0078125 -4.265625 -0.0625 -4.328125 C -0.175781 -4.410156 -0.296875 -4.46875 -0.421875 -4.5 C -0.554688 -4.539062 -0.664062 -4.5625 -0.75 -4.5625 C -0.84375 -4.5625 -0.9375 -4.546875 -1.03125 -4.515625 L -1.0625 -4.578125 C -0.875 -4.648438 -0.695312 -4.6875 -0.53125 -4.6875 C -0.363281 -4.6875 -0.21875 -4.664062 -0.09375 -4.625 C 0.0195312 -4.59375 0.144531 -4.523438 0.28125 -4.421875 C 0.414062 -4.316406 0.523438 -4.222656 0.609375 -4.140625 C 0.703125 -4.054688 0.8125 -3.941406 0.9375 -3.796875 L 3.78125 -0.65625 L 3.78125 -3.53125 C 3.769531 -3.632812 3.726562 -3.71875 3.65625 -3.78125 C 3.59375 -3.84375 3.515625 -3.875 3.421875 -3.875 L 3.3125 -3.875 L 3.3125 -3.9375 L 4.484375 -3.9375 L 4.484375 -3.875 L 4.375 -3.875 C 4.28125 -3.875 4.195312 -3.84375 4.125 -3.78125 C 4.0625 -3.71875 4.03125 -3.640625 4.03125 -3.546875 L 4.03125 -0.359375 C 4.0625 -0.316406 4.113281 -0.253906 4.1875 -0.171875 C 4.257812 -0.0976562 4.304688 -0.0390625 4.328125 0 C 4.359375 0.03125 4.398438 0.078125 4.453125 0.140625 C 4.515625 0.203125 4.5625 0.25 4.59375 0.28125 C 4.632812 0.320312 4.6875 0.367188 4.75 0.421875 C 4.8125 0.472656 4.863281 0.515625 4.90625 0.546875 C 4.957031 0.585938 5.015625 0.625 5.078125 0.65625 C 5.171875 0.71875 5.273438 0.757812 5.390625 0.78125 C 5.503906 0.8125 5.597656 0.828125 5.671875 0.828125 C 5.742188 0.828125 5.820312 0.816406 5.90625 0.796875 Z M 5.921875 0.859375 "/></g></g></g><g fill="#000000" fill-opacity="1"><g transform="translate(32.834601, 40.320105)"><g><path d="M 4.484375 -1.96875 C 4.484375 -1.320312 4.304688 -0.816406 3.953125 -0.453125 C 3.609375 -0.0976562 3.117188 0.078125 2.484375 0.078125 C 2.054688 0.078125 1.671875 -0.0078125 1.328125 -0.1875 C 0.992188 -0.375 0.726562 -0.617188 0.53125 -0.921875 C 0.34375 -1.234375 0.25 -1.582031 0.25 -1.96875 C 0.25 -2.351562 0.34375 -2.703125 0.53125 -3.015625 C 0.71875 -3.328125 0.976562 -3.570312 1.3125 -3.75 C 1.644531 -3.925781 2.007812 -4.015625 2.40625 -4.015625 C 2.664062 -4.015625 2.925781 -3.976562 3.1875 -3.90625 C 3.457031 -3.84375 3.679688 -3.753906 3.859375 -3.640625 L 3.96875 -2.84375 L 3.921875 -2.84375 C 3.835938 -3.15625 3.648438 -3.398438 3.359375 -3.578125 C 3.078125 -3.753906 2.765625 -3.84375 2.421875 -3.84375 C 1.921875 -3.84375 1.503906 -3.664062 1.171875 -3.3125 C 0.835938 -2.957031 0.671875 -2.507812 0.671875 -1.96875 C 0.671875 -1.4375 0.84375 -0.988281 1.1875 -0.625 C 1.53125 -0.269531 1.976562 -0.09375 2.53125 -0.09375 C 3.09375 -0.09375 3.546875 -0.269531 3.890625 -0.625 C 4.242188 -0.988281 4.421875 -1.484375 4.421875 -2.109375 L 4.484375 -2.109375 C 4.484375 -2.066406 4.484375 -2.019531 4.484375 -1.96875 Z M 4.484375 -1.96875 "/></g></g></g><g fill="#000000" fill-opacity="1"><g transform="translate(37.451782, 40.320105)"><g><path d="M 0.40625 -0.0625 C 0.507812 -0.0625 0.59375 -0.09375 0.65625 -0.15625 C 0.726562 -0.226562 0.765625 -0.3125 0.765625 -0.40625 L 0.765625 -3.5625 C 0.765625 -3.65625 0.726562 -3.726562 0.65625 -3.78125 C 0.59375 -3.84375 0.507812 -3.875 0.40625 -3.875 L 0.34375 -3.875 L 0.34375 -3.9375 L 1.484375 -3.9375 C 1.597656 -3.9375 1.722656 -3.945312 1.859375 -3.96875 C 1.992188 -3.988281 2.09375 -4.007812 2.15625 -4.03125 L 2.15625 -3.328125 L 2.09375 -3.328125 L 2.09375 -3.4375 C 2.09375 -3.519531 2.0625 -3.59375 2 -3.65625 C 1.9375 -3.71875 1.863281 -3.753906 1.78125 -3.765625 L 1.140625 -3.765625 L 1.140625 -2.03125 L 2.203125 -2.03125 C 2.273438 -2.03125 2.335938 -2.054688 2.390625 -2.109375 C 2.441406 -2.160156 2.46875 -2.226562 2.46875 -2.3125 L 2.46875 -2.390625 L 2.53125 -2.390625 L 2.53125 -1.5 L 2.46875 -1.5 L 2.46875 -1.578125 C 2.46875 -1.648438 2.441406 -1.710938 2.390625 -1.765625 C 2.347656 -1.816406 2.285156 -1.847656 2.203125 -1.859375 L 1.140625 -1.859375 L 1.140625 -0.171875 L 2.328125 -0.171875 C 2.609375 -0.171875 2.820312 -0.234375 2.96875 -0.359375 C 3.113281 -0.484375 3.234375 -0.664062 3.328125 -0.90625 L 3.390625 -0.90625 L 3.0625 0 L 0.34375 0 L 0.34375 -0.0625 Z M 0.40625 -0.0625 "/></g></g></g><g fill="#000000" fill-opacity="1"><g transform="translate(40.865461, 40.320105)"><g><path d="M 1.5625 -2.625 C 1.539062 -2.675781 1.53125 -2.71875 1.53125 -2.75 C 1.53125 -2.789062 1.53125 -2.832031 1.53125 -2.875 C 1.539062 -2.914062 1.550781 -2.972656 1.5625 -3.046875 C 1.582031 -3.128906 1.609375 -3.207031 1.640625 -3.28125 C 1.679688 -3.363281 1.722656 -3.441406 1.765625 -3.515625 C 1.816406 -3.585938 1.878906 -3.648438 1.953125 -3.703125 C 2.035156 -3.765625 2.125 -3.820312 2.21875 -3.875 C 2.414062 -3.96875 2.65625 -4.015625 2.9375 -4.015625 C 3.507812 -4.015625 3.976562 -3.820312 4.34375 -3.4375 C 4.707031 -3.0625 4.890625 -2.578125 4.890625 -1.984375 C 4.890625 -1.390625 4.675781 -0.894531 4.25 -0.5 C 3.820312 -0.113281 3.28125 0.078125 2.625 0.078125 C 1.96875 0.078125 1.421875 -0.113281 0.984375 -0.5 C 0.554688 -0.894531 0.34375 -1.40625 0.34375 -2.03125 C 0.34375 -2.425781 0.4375 -2.78125 0.625 -3.09375 C 0.8125 -3.40625 1.078125 -3.648438 1.421875 -3.828125 L 1.453125 -3.78125 C 1.210938 -3.613281 1.035156 -3.378906 0.921875 -3.078125 C 0.816406 -2.773438 0.765625 -2.453125 0.765625 -2.109375 C 0.765625 -1.472656 0.9375 -0.976562 1.28125 -0.625 C 1.632812 -0.269531 2.078125 -0.09375 2.609375 -0.09375 C 3.148438 -0.09375 3.59375 -0.269531 3.9375 -0.625 C 4.28125 -0.988281 4.453125 -1.460938 4.453125 -2.046875 C 4.453125 -2.546875 4.316406 -2.96875 4.046875 -3.3125 C 3.773438 -3.664062 3.390625 -3.84375 2.890625 -3.84375 C 2.671875 -3.84375 2.472656 -3.804688 2.296875 -3.734375 C 1.972656 -3.585938 1.753906 -3.359375 1.640625 -3.046875 C 1.617188 -2.953125 1.609375 -2.867188 1.609375 -2.796875 C 1.609375 -2.734375 1.609375 -2.679688 1.609375 -2.640625 Z M 1.5625 -2.625 "/></g></g></g><g fill="#000000" fill-opacity="1"><g transform="translate(20.008212, 44.116977)"><g><path d="M 0.078125 -0.734375 C 0.078125 -0.960938 0.140625 -1.15625 0.265625 -1.3125 C 0.390625 -1.46875 0.554688 -1.546875 0.765625 -1.546875 C 0.984375 -1.546875 1.160156 -1.472656 1.296875 -1.328125 C 1.429688 -1.179688 1.5 -0.992188 1.5 -0.765625 C 1.5 -0.554688 1.4375 -0.367188 1.3125 -0.203125 C 1.195312 -0.046875 1.019531 0.03125 0.78125 0.03125 C 0.570312 0.03125 0.398438 -0.0390625 0.265625 -0.1875 C 0.140625 -0.332031 0.078125 -0.515625 0.078125 -0.734375 Z M 0.265625 -0.78125 C 0.265625 -0.53125 0.316406 -0.347656 0.421875 -0.234375 C 0.523438 -0.117188 0.648438 -0.0625 0.796875 -0.0625 C 0.972656 -0.0625 1.101562 -0.125 1.1875 -0.25 C 1.269531 -0.382812 1.3125 -0.546875 1.3125 -0.734375 C 1.3125 -0.984375 1.253906 -1.164062 1.140625 -1.28125 C 1.035156 -1.394531 0.90625 -1.453125 0.75 -1.453125 C 0.601562 -1.453125 0.484375 -1.390625 0.390625 -1.265625 C 0.304688 -1.140625 0.265625 -0.976562 0.265625 -0.78125 Z M 0.265625 -0.78125 "/></g></g></g><g fill="#000000" fill-opacity="1"><g transform="translate(21.621187, 44.116977)"><g><path d="M 0.0625 -1.484375 C 0.0625 -1.535156 0.09375 -1.5625 0.15625 -1.5625 C 0.320312 -1.5625 0.441406 -1.519531 0.515625 -1.4375 L 1.359375 -0.296875 L 1.359375 -1.265625 C 1.359375 -1.347656 1.347656 -1.398438 1.328125 -1.421875 C 1.316406 -1.441406 1.289062 -1.457031 1.25 -1.46875 L 1.171875 -1.484375 L 1.171875 -1.546875 L 1.609375 -1.546875 L 1.609375 -1.484375 L 1.53125 -1.46875 C 1.5 -1.457031 1.476562 -1.445312 1.46875 -1.4375 C 1.46875 -1.425781 1.46875 -1.394531 1.46875 -1.34375 L 1.46875 0.03125 L 1.40625 0.03125 L 0.5 -1.203125 L 0.5 -0.203125 C 0.5 -0.140625 0.5 -0.101562 0.5 -0.09375 C 0.507812 -0.0820312 0.53125 -0.078125 0.5625 -0.078125 L 0.65625 -0.046875 L 0.65625 0 L 0.21875 0 L 0.21875 -0.046875 L 0.296875 -0.0625 C 0.335938 -0.0703125 0.363281 -0.0859375 0.375 -0.109375 C 0.382812 -0.140625 0.390625 -0.191406 0.390625 -0.265625 L 0.390625 -1.171875 C 0.390625 -1.347656 0.363281 -1.441406 0.3125 -1.453125 C 0.289062 -1.453125 0.257812 -1.441406 0.21875 -1.421875 C 0.175781 -1.398438 0.15625 -1.390625 0.15625 -1.390625 C 0.113281 -1.390625 0.0820312 -1.410156 0.0625 -1.453125 C 0.0625 -1.460938 0.0625 -1.472656 0.0625 -1.484375 Z M 0.0625 -1.484375 "/></g></g></g><g fill="#000000" fill-opacity="1"><g transform="translate(23.355078, 44.116977)"><g><path d="M 0.21875 -0.265625 L 0.21875 -1.265625 C 0.21875 -1.347656 0.207031 -1.398438 0.1875 -1.421875 C 0.175781 -1.441406 0.15625 -1.457031 0.125 -1.46875 L 0.046875 -1.484375 L 0.046875 -1.546875 L 0.546875 -1.546875 L 0.546875 -1.484375 L 0.453125 -1.46875 C 0.421875 -1.457031 0.40625 -1.445312 0.40625 -1.4375 C 0.394531 -1.425781 0.390625 -1.394531 0.390625 -1.34375 L 0.390625 -0.078125 L 0.875 -0.078125 C 0.9375 -0.078125 0.976562 -0.125 1 -0.21875 C 1.007812 -0.25 1.015625 -0.273438 1.015625 -0.296875 L 1.078125 -0.296875 L 1.078125 0 L 0.046875 0 L 0.046875 -0.046875 L 0.125 -0.0625 C 0.164062 -0.0703125 0.191406 -0.09375 0.203125 -0.125 C 0.210938 -0.144531 0.21875 -0.191406 0.21875 -0.265625 Z M 0.21875 -0.265625 "/></g></g></g><g fill="#000000" fill-opacity="1"><g transform="translate(24.531198, 44.116977)"><g><path d="M 0.171875 -1.46875 C 0.078125 -1.46875 0.03125 -1.5 0.03125 -1.5625 C 0.03125 -1.613281 0.0546875 -1.644531 0.109375 -1.65625 C 0.117188 -1.664062 0.132812 -1.671875 0.15625 -1.671875 C 0.195312 -1.671875 0.226562 -1.648438 0.25 -1.609375 C 0.28125 -1.578125 0.300781 -1.554688 0.3125 -1.546875 C 0.320312 -1.546875 0.335938 -1.546875 0.359375 -1.546875 L 0.828125 -1.546875 L 0.828125 -1.484375 L 0.734375 -1.46875 C 0.703125 -1.457031 0.679688 -1.445312 0.671875 -1.4375 C 0.671875 -1.425781 0.671875 -1.394531 0.671875 -1.34375 L 0.671875 -0.203125 C 0.671875 -0.140625 0.675781 -0.101562 0.6875 -0.09375 C 0.6875 -0.0820312 0.703125 -0.078125 0.734375 -0.078125 L 0.828125 -0.0625 L 0.828125 0 L 0.328125 0 L 0.328125 -0.046875 L 0.390625 -0.0625 C 0.441406 -0.0703125 0.472656 -0.09375 0.484375 -0.125 C 0.492188 -0.15625 0.5 -0.203125 0.5 -0.265625 L 0.5 -1.3125 C 0.5 -1.394531 0.476562 -1.445312 0.4375 -1.46875 C 0.414062 -1.46875 0.394531 -1.46875 0.375 -1.46875 Z M 0.171875 -1.46875 "/></g></g></g><g fill="#000000" fill-opacity="1"><g transform="translate(25.478488, 44.116977)"><g><path d="M 0.0625 -1.484375 C 0.0625 -1.535156 0.09375 -1.5625 0.15625 -1.5625 C 0.320312 -1.5625 0.441406 -1.519531 0.515625 -1.4375 L 1.359375 -0.296875 L 1.359375 -1.265625 C 1.359375 -1.347656 1.347656 -1.398438 1.328125 -1.421875 C 1.316406 -1.441406 1.289062 -1.457031 1.25 -1.46875 L 1.171875 -1.484375 L 1.171875 -1.546875 L 1.609375 -1.546875 L 1.609375 -1.484375 L 1.53125 -1.46875 C 1.5 -1.457031 1.476562 -1.445312 1.46875 -1.4375 C 1.46875 -1.425781 1.46875 -1.394531 1.46875 -1.34375 L 1.46875 0.03125 L 1.40625 0.03125 L 0.5 -1.203125 L 0.5 -0.203125 C 0.5 -0.140625 0.5 -0.101562 0.5 -0.09375 C 0.507812 -0.0820312 0.53125 -0.078125 0.5625 -0.078125 L 0.65625 -0.046875 L 0.65625 0 L 0.21875 0 L 0.21875 -0.046875 L 0.296875 -0.0625 C 0.335938 -0.0703125 0.363281 -0.0859375 0.375 -0.109375 C 0.382812 -0.140625 0.390625 -0.191406 0.390625 -0.265625 L 0.390625 -1.171875 C 0.390625 -1.347656 0.363281 -1.441406 0.3125 -1.453125 C 0.289062 -1.453125 0.257812 -1.441406 0.21875 -1.421875 C 0.175781 -1.398438 0.15625 -1.390625 0.15625 -1.390625 C 0.113281 -1.390625 0.0820312 -1.410156 0.0625 -1.453125 C 0.0625 -1.460938 0.0625 -1.472656 0.0625 -1.484375 Z M 0.0625 -1.484375 "/></g></g></g><g fill="#000000" fill-opacity="1"><g transform="translate(27.212379, 44.116977)"><g><path d="M 0.90625 -0.078125 C 0.96875 -0.078125 1.007812 -0.128906 1.03125 -0.234375 L 1.078125 -0.234375 L 1.078125 0 L 0.046875 0 L 0.046875 -0.046875 L 0.125 -0.0625 C 0.164062 -0.0703125 0.191406 -0.09375 0.203125 -0.125 C 0.210938 -0.15625 0.21875 -0.203125 0.21875 -0.265625 L 0.21875 -1.265625 C 0.21875 -1.347656 0.210938 -1.398438 0.203125 -1.421875 C 0.191406 -1.441406 0.164062 -1.457031 0.125 -1.46875 L 0.046875 -1.484375 L 0.046875 -1.546875 L 1 -1.546875 L 1 -1.3125 L 0.953125 -1.3125 C 0.929688 -1.40625 0.890625 -1.457031 0.828125 -1.46875 L 0.390625 -1.46875 L 0.390625 -0.796875 L 0.6875 -0.796875 C 0.726562 -0.796875 0.75 -0.800781 0.75 -0.8125 C 0.757812 -0.820312 0.769531 -0.847656 0.78125 -0.890625 L 0.78125 -0.9375 L 0.84375 -0.9375 L 0.84375 -0.59375 L 0.78125 -0.59375 C 0.769531 -0.65625 0.757812 -0.691406 0.75 -0.703125 C 0.738281 -0.710938 0.71875 -0.71875 0.6875 -0.71875 L 0.390625 -0.71875 L 0.390625 -0.078125 Z M 0.90625 -0.078125 "/></g></g></g><g fill="#000000" fill-opacity="1"><g transform="translate(28.431404, 44.116977)"><g><path d="M 0 0 Z M 0 0 "/></g></g></g><g fill="#000000" fill-opacity="1"><g transform="translate(28.967843, 44.116977)"><g><path d="M 0.875 -1.15625 C 0.863281 -1.363281 0.769531 -1.46875 0.59375 -1.46875 C 0.488281 -1.46875 0.414062 -1.4375 0.375 -1.375 C 0.351562 -1.34375 0.34375 -1.304688 0.34375 -1.265625 C 0.34375 -1.210938 0.367188 -1.160156 0.421875 -1.109375 L 0.46875 -1.078125 L 0.75 -0.828125 C 0.925781 -0.679688 1.015625 -0.515625 1.015625 -0.328125 C 1.015625 -0.210938 0.960938 -0.117188 0.859375 -0.046875 C 0.765625 0.015625 0.65625 0.046875 0.53125 0.046875 C 0.445312 0.046875 0.378906 0.03125 0.328125 0 C 0.285156 -0.0195312 0.253906 -0.03125 0.234375 -0.03125 C 0.222656 -0.0390625 0.203125 -0.0546875 0.171875 -0.078125 L 0.109375 -0.125 L 0.109375 -0.359375 C 0.109375 -0.429688 0.132812 -0.488281 0.1875 -0.53125 C 0.25 -0.570312 0.3125 -0.59375 0.375 -0.59375 C 0.445312 -0.59375 0.507812 -0.578125 0.5625 -0.546875 C 0.601562 -0.523438 0.625 -0.5 0.625 -0.46875 L 0.625 -0.453125 C 0.625 -0.421875 0.609375 -0.398438 0.578125 -0.390625 C 0.566406 -0.390625 0.554688 -0.390625 0.546875 -0.390625 C 0.515625 -0.390625 0.492188 -0.398438 0.484375 -0.421875 C 0.472656 -0.441406 0.46875 -0.457031 0.46875 -0.46875 C 0.445312 -0.488281 0.410156 -0.5 0.359375 -0.5 C 0.285156 -0.5 0.242188 -0.460938 0.234375 -0.390625 C 0.222656 -0.378906 0.21875 -0.367188 0.21875 -0.359375 C 0.21875 -0.222656 0.269531 -0.128906 0.375 -0.078125 C 0.414062 -0.0546875 0.46875 -0.046875 0.53125 -0.046875 C 0.664062 -0.046875 0.757812 -0.09375 0.8125 -0.1875 C 0.832031 -0.226562 0.84375 -0.269531 0.84375 -0.3125 C 0.84375 -0.382812 0.8125 -0.46875 0.75 -0.5625 C 0.71875 -0.613281 0.679688 -0.65625 0.640625 -0.6875 L 0.40625 -0.875 C 0.300781 -0.957031 0.234375 -1.023438 0.203125 -1.078125 C 0.179688 -1.140625 0.171875 -1.191406 0.171875 -1.234375 C 0.171875 -1.335938 0.210938 -1.414062 0.296875 -1.46875 C 0.378906 -1.53125 0.476562 -1.5625 0.59375 -1.5625 C 0.726562 -1.5625 0.851562 -1.523438 0.96875 -1.453125 L 0.96875 -1.15625 Z M 0.875 -1.15625 "/></g></g></g><g fill="#000000" fill-opacity="1"><g transform="translate(30.127061, 44.116977)"><g><path d="M 0.65625 0.4375 C 0.738281 0.4375 0.78125 0.347656 0.78125 0.171875 L 0.78125 -1.34375 C 0.78125 -1.394531 0.773438 -1.425781 0.765625 -1.4375 C 0.753906 -1.445312 0.738281 -1.457031 0.71875 -1.46875 L 0.625 -1.484375 L 0.34375 -1.484375 C 0.257812 -1.484375 0.203125 -1.441406 0.171875 -1.359375 C 0.148438 -1.316406 0.140625 -1.273438 0.140625 -1.234375 C 0.140625 -1.054688 0.179688 -0.96875 0.265625 -0.96875 C 0.273438 -0.96875 0.296875 -0.984375 0.328125 -1.015625 C 0.378906 -1.046875 0.421875 -1.0625 0.453125 -1.0625 C 0.515625 -1.0625 0.546875 -1.035156 0.546875 -0.984375 C 0.546875 -0.953125 0.53125 -0.925781 0.5 -0.90625 C 0.476562 -0.894531 0.457031 -0.890625 0.4375 -0.890625 C 0.34375 -0.890625 0.269531 -0.898438 0.21875 -0.921875 C 0.0507812 -0.972656 -0.03125 -1.082031 -0.03125 -1.25 C -0.03125 -1.363281 0.0234375 -1.445312 0.140625 -1.5 C 0.203125 -1.53125 0.269531 -1.546875 0.34375 -1.546875 L 1.125 -1.546875 L 1.125 -1.484375 L 1.046875 -1.46875 C 1.003906 -1.457031 0.976562 -1.4375 0.96875 -1.40625 C 0.957031 -1.382812 0.953125 -1.335938 0.953125 -1.265625 L 0.953125 -0.84375 L 1.875 -0.84375 L 1.875 -1.265625 C 1.875 -1.347656 1.867188 -1.398438 1.859375 -1.421875 C 1.847656 -1.453125 1.820312 -1.46875 1.78125 -1.46875 L 1.703125 -1.484375 L 1.703125 -1.546875 L 2.203125 -1.546875 L 2.203125 -1.484375 L 2.125 -1.46875 C 2.09375 -1.457031 2.070312 -1.445312 2.0625 -1.4375 C 2.0625 -1.425781 2.0625 -1.394531 2.0625 -1.34375 L 2.0625 -0.203125 C 2.0625 -0.140625 2.0625 -0.101562 2.0625 -0.09375 C 2.070312 -0.0820312 2.09375 -0.078125 2.125 -0.078125 L 2.203125 -0.0625 L 2.203125 0 L 1.703125 0 L 1.703125 -0.046875 L 1.78125 -0.0625 C 1.820312 -0.0703125 1.847656 -0.09375 1.859375 -0.125 C 1.867188 -0.15625 1.875 -0.203125 1.875 -0.265625 L 1.875 -0.765625 L 0.953125 -0.765625 L 0.953125 0.09375 C 0.941406 0.238281 0.898438 0.34375 0.828125 0.40625 C 0.765625 0.476562 0.660156 0.515625 0.515625 0.515625 C 0.460938 0.515625 0.425781 0.503906 0.40625 0.484375 C 0.382812 0.472656 0.375 0.453125 0.375 0.421875 C 0.382812 0.367188 0.414062 0.34375 0.46875 0.34375 C 0.507812 0.34375 0.546875 0.359375 0.578125 0.390625 C 0.609375 0.421875 0.632812 0.4375 0.65625 0.4375 Z M 0.65625 0.4375 "/></g></g></g><g fill="#000000" fill-opacity="1"><g transform="translate(32.443425, 44.116977)"><g><path d="M 0.078125 -0.734375 C 0.078125 -0.960938 0.140625 -1.15625 0.265625 -1.3125 C 0.390625 -1.46875 0.554688 -1.546875 0.765625 -1.546875 C 0.984375 -1.546875 1.160156 -1.472656 1.296875 -1.328125 C 1.429688 -1.179688 1.5 -0.992188 1.5 -0.765625 C 1.5 -0.554688 1.4375 -0.367188 1.3125 -0.203125 C 1.195312 -0.046875 1.019531 0.03125 0.78125 0.03125 C 0.570312 0.03125 0.398438 -0.0390625 0.265625 -0.1875 C 0.140625 -0.332031 0.078125 -0.515625 0.078125 -0.734375 Z M 0.265625 -0.78125 C 0.265625 -0.53125 0.316406 -0.347656 0.421875 -0.234375 C 0.523438 -0.117188 0.648438 -0.0625 0.796875 -0.0625 C 0.972656 -0.0625 1.101562 -0.125 1.1875 -0.25 C 1.269531 -0.382812 1.3125 -0.546875 1.3125 -0.734375 C 1.3125 -0.984375 1.253906 -1.164062 1.140625 -1.28125 C 1.035156 -1.394531 0.90625 -1.453125 0.75 -1.453125 C 0.601562 -1.453125 0.484375 -1.390625 0.390625 -1.265625 C 0.304688 -1.140625 0.265625 -0.976562 0.265625 -0.78125 Z M 0.265625 -0.78125 "/></g></g></g><g fill="#000000" fill-opacity="1"><g transform="translate(34.056401, 44.116977)"><g><path d="M 0.03125 -1.453125 C 0.03125 -1.515625 0.078125 -1.546875 0.171875 -1.546875 L 1.015625 -1.546875 C 1.128906 -1.546875 1.226562 -1.515625 1.3125 -1.453125 C 1.394531 -1.390625 1.4375 -1.289062 1.4375 -1.15625 C 1.4375 -0.875 1.289062 -0.734375 1 -0.734375 C 0.875 -0.742188 0.8125 -0.773438 0.8125 -0.828125 C 0.8125 -0.898438 0.847656 -0.9375 0.921875 -0.9375 C 0.953125 -0.9375 0.976562 -0.921875 1 -0.890625 C 1.019531 -0.859375 1.035156 -0.84375 1.046875 -0.84375 C 1.054688 -0.832031 1.070312 -0.828125 1.09375 -0.828125 C 1.195312 -0.828125 1.25 -0.929688 1.25 -1.140625 C 1.25 -1.253906 1.207031 -1.34375 1.125 -1.40625 C 1.082031 -1.445312 1.03125 -1.46875 0.96875 -1.46875 L 0.71875 -1.46875 L 0.71875 -0.203125 C 0.71875 -0.140625 0.722656 -0.101562 0.734375 -0.09375 C 0.742188 -0.0820312 0.765625 -0.078125 0.796875 -0.078125 L 0.875 -0.046875 L 0.875 0 L 0.375 0 L 0.375 -0.046875 L 0.453125 -0.0625 C 0.492188 -0.0703125 0.519531 -0.0859375 0.53125 -0.109375 C 0.539062 -0.140625 0.546875 -0.191406 0.546875 -0.265625 L 0.546875 -1.234375 C 0.535156 -1.359375 0.507812 -1.429688 0.46875 -1.453125 C 0.445312 -1.460938 0.421875 -1.46875 0.390625 -1.46875 C 0.367188 -1.46875 0.335938 -1.453125 0.296875 -1.421875 C 0.242188 -1.367188 0.195312 -1.34375 0.15625 -1.34375 C 0.113281 -1.34375 0.0820312 -1.351562 0.0625 -1.375 C 0.0390625 -1.40625 0.03125 -1.429688 0.03125 -1.453125 Z M 0.03125 -1.453125 "/></g></g></g></svg>